<svg width="1926" height="156" viewBox="0 0 1926 156" fill="none" xmlns="http://www.w3.org/2000/svg">
<path d="M242.991 61.6685C244.032 58.1188 242.046 54.9182 238.704 54.333C231.361 53.0472 225.532 67.7415 230.555 73.2493V73.2493C237.25 80.5898 246.291 80.6157 253.862 74.1823C256.406 72.0208 258.544 68.8295 259.449 64.1221C262.441 48.5466 246.731 35.7994 230.273 39.5487C214.589 43.1218 197.256 74.5449 225.035 89.885C264.756 110.033 289.605 55.4756 260.583 33.9165C243.206 21.008 220.319 19.7541 204.769 37.8863C195.536 48.652 192.149 63.9604 196.11 77.5785C200.937 94.1775 212.808 101.024 217.114 105.638C221.757 110.613 256.821 135.019 271.885 145.522" stroke="#F9616A" stroke-width="10.5465" stroke-linecap="round"/>
<path d="M303.348 61.4766C302.306 57.9269 304.292 54.7263 307.634 54.1411C314.978 52.8553 320.807 67.5496 315.783 73.0574V73.0574C309.088 80.3979 300.048 80.4238 292.476 73.9904C289.933 71.8289 287.794 68.6376 286.89 63.9302C283.897 48.3547 299.607 35.6075 316.065 39.3568C331.749 42.9299 349.083 74.353 321.303 89.6931C281.583 109.841 256.734 55.2837 285.756 33.7246C303.133 20.8161 326.019 19.5622 341.569 37.6944C350.802 48.4601 354.189 63.7685 350.229 77.3866C345.401 93.9856 333.531 100.833 329.225 105.446C324.581 110.421 288.192 135.022 273.128 145.526" stroke="#F9616A" stroke-width="10.5465" stroke-linecap="round"/>
<path d="M85.8237 0V26.5346H105.31V52.24H129.357V70.4825H154.233" stroke="#3B6C46" stroke-width="10.5465"/>
<path d="M85.4077 41.0464V69.2394H112.357" stroke="#3B6C46" stroke-width="10.5465"/>
<path d="M68.4097 0V26.5346H48.9233V52.24H24.8763V70.4825H0.000144303" stroke="#3B6C46" stroke-width="10.5465"/>
<path d="M68.8247 41.0464V69.2394H41.8755" stroke="#3B6C46" stroke-width="10.5465"/>
<path d="M85.8237 155.062V128.527H105.31V102.822H129.357V84.579H154.233" stroke="#3B6C46" stroke-width="10.5465"/>
<path d="M85.8237 155.062V128.527H105.31V102.822H129.357V84.579H154.233" stroke="#3B6C46" stroke-width="10.5465"/>
<path d="M85.4077 114.016V85.8226H112.357" stroke="#3B6C46" stroke-width="10.5465"/>
<path d="M68.4097 155.062V128.527H48.9233V102.822H24.8763V84.579H0.000144303" stroke="#3B6C46" stroke-width="10.5465"/>
<path d="M68.8247 114.016V85.8226H41.8755" stroke="#3B6C46" stroke-width="10.5465"/>
<path d="M635.097 61.668C636.138 58.1183 634.152 54.9177 630.81 54.3325C623.467 53.0468 617.637 67.741 622.661 73.2488V73.2488C629.356 80.5894 638.397 80.6152 645.968 74.1818C648.512 72.0203 650.65 68.829 651.555 64.1216C654.547 48.5461 638.837 35.7989 622.379 39.5482C606.695 43.1213 589.362 74.5444 617.141 89.8845C656.862 110.032 681.711 55.4751 652.689 33.916C635.312 21.0075 612.425 19.7536 596.875 37.8858C587.642 48.6515 584.255 63.9599 588.216 77.578C593.043 94.177 604.914 101.024 609.22 105.637C613.863 110.612 648.927 135.018 663.991 145.521" stroke="#F9616A" stroke-width="10.5465" stroke-linecap="round"/>
<path d="M695.454 61.4761C694.412 57.9264 696.398 54.7258 699.74 54.1406C707.083 52.8548 712.913 67.5491 707.889 73.0569V73.0569C701.194 80.3975 692.154 80.4233 684.582 73.99C682.038 71.8284 679.9 68.6371 678.996 63.9297C676.003 48.3542 691.713 35.607 708.171 39.3563C723.855 42.9294 741.189 74.3525 713.409 89.6926C673.689 109.841 648.839 55.2832 677.862 33.7241C695.239 20.8156 718.125 19.5617 733.675 37.6939C742.908 48.4596 746.295 63.768 742.335 77.3861C737.507 93.9851 725.636 100.832 721.331 105.445C716.687 110.421 680.297 135.022 665.233 145.525" stroke="#F9616A" stroke-width="10.5465" stroke-linecap="round"/>
<path d="M1811.74 61.7281C1812.78 58.1784 1810.79 54.9777 1807.45 54.3925C1800.11 53.1068 1794.28 67.801 1799.3 73.3089V73.3089C1806 80.6494 1815.04 80.6752 1822.61 74.2419C1825.15 72.0803 1827.29 68.8891 1828.19 64.1816C1831.19 48.6062 1815.48 35.859 1799.02 39.6083C1783.34 43.1814 1766 74.6044 1793.78 89.9446C1833.5 110.092 1858.35 55.5352 1829.33 33.9761C1811.95 21.0675 1789.07 19.8137 1773.52 37.9459C1764.28 48.7115 1760.9 64.0199 1764.86 77.6381C1769.68 94.2371 1781.55 101.084 1785.86 105.697C1790.5 110.673 1825.57 135.078 1840.63 145.581" stroke="#F9616A" stroke-width="10.5465" stroke-linecap="round"/>
<path d="M1872.09 61.5362C1871.05 57.9865 1873.04 54.7858 1876.38 54.2006C1883.72 52.9149 1889.55 67.6091 1884.53 73.117V73.117C1877.83 80.4575 1868.79 80.4833 1861.22 74.05C1858.68 71.8884 1856.54 68.6972 1855.64 63.9897C1852.64 48.4143 1868.35 35.6671 1884.81 39.4164C1900.5 42.9895 1917.83 74.4125 1890.05 89.7527C1850.33 109.901 1825.48 55.3433 1854.5 33.7842C1871.88 20.8757 1894.77 19.6218 1910.32 37.754C1919.55 48.5196 1922.94 63.828 1918.97 77.4462C1914.15 94.0452 1902.28 100.892 1897.97 105.505C1893.33 110.481 1856.94 135.082 1841.87 145.585" stroke="#F9616A" stroke-width="10.5465" stroke-linecap="round"/>
<path d="M477.929 0V26.5346H497.416V52.24H521.463V70.4825H546.339" stroke="#3B6C46" stroke-width="10.5465"/>
<path d="M477.929 0V26.5346H497.416V52.24H521.463V70.4825H546.339" stroke="#3B6C46" stroke-width="10.5465"/>
<path d="M477.514 41.0464V69.2394H504.463" stroke="#3B6C46" stroke-width="10.5465"/>
<path d="M460.515 0V26.5346H441.029V52.24H416.982V70.4825H392.106" stroke="#3B6C46" stroke-width="10.5465"/>
<path d="M460.93 41.0464V69.2394H433.981" stroke="#3B6C46" stroke-width="10.5465"/>
<path d="M477.929 155.062V128.527H497.416V102.822H521.463V84.579H546.339" stroke="#3B6C46" stroke-width="10.5465"/>
<path d="M477.929 155.062V128.527H497.416V102.822H521.463V84.579H546.339" stroke="#3B6C46" stroke-width="10.5465"/>
<path d="M477.514 114.016V85.8226H504.463" stroke="#3B6C46" stroke-width="10.5465"/>
<path d="M460.515 155.062V128.527H441.029V102.822H416.982V84.579H392.106" stroke="#3B6C46" stroke-width="10.5465"/>
<path d="M460.93 114.016V85.8226H433.981" stroke="#3B6C46" stroke-width="10.5465"/>
<path d="M1027.2 61.6685C1028.24 58.1188 1026.26 54.9182 1022.92 54.333C1015.57 53.0472 1009.74 67.7415 1014.77 73.2493V73.2493C1021.46 80.5898 1030.5 80.6157 1038.07 74.1823C1040.62 72.0208 1042.76 68.8295 1043.66 64.1221C1046.65 48.5466 1030.94 35.7994 1014.48 39.5487C998.801 43.1218 981.467 74.5449 1009.25 89.885C1048.97 110.033 1073.82 55.4756 1044.79 33.9165C1027.42 21.008 1004.53 19.7541 988.98 37.8863C979.748 48.652 976.361 63.9604 980.321 77.5785C985.148 94.1775 997.019 101.024 1001.33 105.638C1005.97 110.613 1041.03 135.019 1056.1 145.522" stroke="#F9616A" stroke-width="10.5465" stroke-linecap="round"/>
<path d="M1087.56 61.4766C1086.52 57.9269 1088.5 54.7263 1091.85 54.1411C1099.19 52.8553 1105.02 67.5496 1099.99 73.0574V73.0574C1093.3 80.3979 1084.26 80.4238 1076.69 73.9904C1074.14 71.8289 1072.01 68.6376 1071.1 63.9302C1068.11 48.3547 1083.82 35.6075 1100.28 39.3568C1115.96 42.9299 1133.29 74.353 1105.51 89.6931C1065.79 109.841 1040.94 55.2837 1069.97 33.7246C1087.34 20.8161 1110.23 19.5622 1125.78 37.6944C1135.01 48.4601 1138.4 63.7685 1134.44 77.3866C1129.61 93.9856 1117.74 100.833 1113.44 105.446C1108.79 110.421 1072.4 135.022 1057.34 145.526" stroke="#F9616A" stroke-width="10.5465" stroke-linecap="round"/>
<path d="M870.034 0V26.5346H889.521V52.24H913.568V70.4825H938.444" stroke="#3B6C46" stroke-width="10.5465"/>
<path d="M870.034 0V26.5346H889.521V52.24H913.568V70.4825H938.444" stroke="#3B6C46" stroke-width="10.5465"/>
<path d="M869.619 41.0464V69.2394H896.568" stroke="#3B6C46" stroke-width="10.5465"/>
<path d="M852.621 0V26.5346H833.135V52.24H809.088V70.4825H784.212" stroke="#3B6C46" stroke-width="10.5465"/>
<path d="M853.036 41.0464V69.2394H826.086" stroke="#3B6C46" stroke-width="10.5465"/>
<path d="M870.034 155.062V128.527H889.521V102.822H913.568V84.579H938.444" stroke="#3B6C46" stroke-width="10.5465"/>
<path d="M870.034 155.062V128.527H889.521V102.822H913.568V84.579H938.444" stroke="#3B6C46" stroke-width="10.5465"/>
<path d="M869.619 114.016V85.8226H896.568" stroke="#3B6C46" stroke-width="10.5465"/>
<path d="M852.621 155.062V128.527H833.135V102.822H809.088V84.579H784.212" stroke="#3B6C46" stroke-width="10.5465"/>
<path d="M853.036 114.016V85.8226H826.086" stroke="#3B6C46" stroke-width="10.5465"/>
<path d="M1419.31 61.6685C1420.35 58.1188 1418.36 54.9182 1415.02 54.333C1407.68 53.0472 1401.85 67.7415 1406.87 73.2493V73.2493C1413.57 80.5898 1422.61 80.6157 1430.18 74.1823C1432.72 72.0208 1434.86 68.8295 1435.77 64.1221C1438.76 48.5466 1423.05 35.7994 1406.59 39.5487C1390.91 43.1218 1373.57 74.5449 1401.35 89.885C1441.07 110.033 1465.92 55.4756 1436.9 33.9165C1419.52 21.008 1396.64 19.7541 1381.09 37.8863C1371.85 48.652 1368.47 63.9604 1372.43 77.5785C1377.25 94.1775 1389.12 101.024 1393.43 105.638C1398.07 110.613 1433.14 135.019 1448.2 145.522" stroke="#F9616A" stroke-width="10.5465" stroke-linecap="round"/>
<path d="M1479.66 61.4766C1478.62 57.9269 1480.61 54.7263 1483.95 54.1411C1491.29 52.8553 1497.12 67.5496 1492.1 73.0574V73.0574C1485.4 80.3979 1476.36 80.4238 1468.79 73.9904C1466.25 71.8289 1464.11 68.6376 1463.21 63.9302C1460.21 48.3547 1475.92 35.6075 1492.38 39.3568C1508.07 42.9299 1525.4 74.353 1497.62 89.6931C1457.9 109.841 1433.05 55.2837 1462.07 33.7246C1479.45 20.8161 1502.34 19.5622 1517.89 37.6944C1527.12 48.4601 1530.51 63.7685 1526.55 77.3866C1521.72 93.9856 1509.85 100.833 1505.54 105.446C1500.9 110.421 1464.51 135.022 1449.44 145.526" stroke="#F9616A" stroke-width="10.5465" stroke-linecap="round"/>
<path d="M1262.14 0V26.5346H1281.63V52.24H1305.67V70.4825H1330.55" stroke="#3B6C46" stroke-width="10.5465"/>
<path d="M1262.14 0V26.5346H1281.63V52.24H1305.67V70.4825H1330.55" stroke="#3B6C46" stroke-width="10.5465"/>
<path d="M1261.72 41.0464V69.2394H1288.67" stroke="#3B6C46" stroke-width="10.5465"/>
<path d="M1244.73 0V26.5346H1225.24V52.24H1201.19V70.4825H1176.32" stroke="#3B6C46" stroke-width="10.5465"/>
<path d="M1245.14 41.0464V69.2394H1218.19" stroke="#3B6C46" stroke-width="10.5465"/>
<path d="M1262.14 155.062V128.527H1281.63V102.822H1305.67V84.579H1330.55" stroke="#3B6C46" stroke-width="10.5465"/>
<path d="M1262.14 155.062V128.527H1281.63V102.822H1305.67V84.579H1330.55" stroke="#3B6C46" stroke-width="10.5465"/>
<path d="M1261.72 114.016V85.8226H1288.67" stroke="#3B6C46" stroke-width="10.5465"/>
<path d="M1244.73 155.062V128.527H1225.24V102.822H1201.19V84.579H1176.32" stroke="#3B6C46" stroke-width="10.5465"/>
<path d="M1245.14 114.016V85.8226H1218.19" stroke="#3B6C46" stroke-width="10.5465"/>
<path d="M1654.25 0V26.5346H1673.73V52.24H1697.78V70.4825H1722.65" stroke="#3B6C46" stroke-width="10.5465"/>
<path d="M1654.25 0V26.5346H1673.73V52.24H1697.78V70.4825H1722.65" stroke="#3B6C46" stroke-width="10.5465"/>
<path d="M1653.83 41.0464V69.2394H1680.78" stroke="#3B6C46" stroke-width="10.5465"/>
<path d="M1636.83 0V26.5346H1617.35V52.24H1593.3V70.4825H1568.42" stroke="#3B6C46" stroke-width="10.5465"/>
<path d="M1637.25 41.0464V69.2394H1610.3" stroke="#3B6C46" stroke-width="10.5465"/>
<path d="M1654.25 155.062V128.527H1673.73V102.822H1697.78V84.579H1722.65" stroke="#3B6C46" stroke-width="10.5465"/>
<path d="M1654.25 155.062V128.527H1673.73V102.822H1697.78V84.579H1722.65" stroke="#3B6C46" stroke-width="10.5465"/>
<path d="M1653.83 114.016V85.8226H1680.78" stroke="#3B6C46" stroke-width="10.5465"/>
<path d="M1636.83 155.062V128.527H1617.35V102.822H1593.3V84.579H1568.42" stroke="#3B6C46" stroke-width="10.5465"/>
<path d="M1637.25 114.016V85.8226H1610.3" stroke="#3B6C46" stroke-width="10.5465"/>
</svg>
