<svg width="382" height="312" viewBox="0 0 382 312" fill="none" xmlns="http://www.w3.org/2000/svg">
<path d="M145.397 242.408C148.891 231.322 161.544 227.226 170.385 235.058C180.001 225.704 194.554 234.379 195.425 242.408C204.462 244.26 208.92 258.193 201.811 266.507C209.764 275.424 205.908 289.522 194.34 291.312C188.918 302.174 179.037 302.579 170.385 297.036C161.927 305.471 146.745 300.531 144.335 291.477C135.5 288.5 130.697 272.652 138.409 266.507C134.071 263.133 131.661 246.866 145.397 242.408Z" fill="white" stroke="#3B6C46" stroke-width="3"/>
<path d="M169.908 263.61L169.894 264.83L168.527 264.814L167.625 265.493L168.51 266.194L169.877 266.21L169.86 267.695L170.482 268.393L171.121 267.71L171.139 266.225L172.453 266.24L173.408 265.562L172.47 264.861L171.155 264.845L171.17 263.625L170.551 262.609L169.908 263.61Z" fill="#1B3BA4"/>
<path d="M153.198 255.781C153.001 255.288 152.489 255.112 152.042 255.344C151.017 255.877 151.695 258.201 152.845 258.307V258.307C154.276 258.438 155.245 257.661 155.618 256.273C155.757 255.756 155.743 255.144 155.392 254.47C154.321 252.41 151.271 252.478 149.646 254.494C148.097 256.415 148.906 261.662 153.638 260.723C160.24 259.178 158.207 250.575 152.756 250.926C149.091 251.163 145.944 253.74 146.493 258.147C146.639 259.32 147.174 260.431 148.014 261.263C150.446 263.672 153.043 263.153 154.136 263.28C155.148 263.397 167.719 263.461 167.719 263.461" stroke="#F9616A" stroke-width="1.7" stroke-linecap="round"/>
<path d="M159.925 249.339C159.457 249.015 159.386 248.44 159.729 248.047C160.484 247.184 162.601 248.38 162.531 249.524V249.524C162.439 251.049 161.36 251.925 159.832 251.886C159.319 251.873 158.755 251.698 158.192 251.222C156.33 249.647 156.979 246.604 159.31 245.464C161.532 244.377 166.641 246.463 164.799 250.981C161.991 257.228 153.749 253.1 155.14 247.717C156.085 244.058 159.331 241.511 163.721 243.245C164.772 243.66 165.668 244.396 166.354 245.293C168.551 248.163 168.035 249.836 168.072 250.981C168.126 252.667 168.072 263.209 168.072 263.209" stroke="#F9616A" stroke-width="1.7" stroke-linecap="round"/>
<path d="M187.509 255.779C187.705 255.286 188.218 255.11 188.665 255.342C189.69 255.874 189.011 258.199 187.861 258.304V258.304C186.43 258.436 185.461 257.659 185.089 256.271C184.949 255.753 184.964 255.142 185.314 254.468C186.385 252.408 189.435 252.476 191.06 254.492C192.609 256.413 191.8 261.66 187.068 260.721C180.466 259.176 182.499 250.573 187.95 250.924C191.615 251.16 194.763 253.738 194.213 258.145C194.067 259.318 193.533 260.429 192.693 261.261C190.26 263.67 187.663 263.151 186.571 263.277C185.558 263.394 172.988 263.459 172.988 263.459" stroke="#F9616A" stroke-width="1.7" stroke-linecap="round"/>
<path d="M180.781 249.336C181.249 249.012 181.32 248.437 180.977 248.044C180.222 247.181 178.106 248.377 178.175 249.521V249.521C178.267 251.046 179.346 251.922 180.874 251.884C181.387 251.871 181.951 251.695 182.514 251.219C184.376 249.644 183.727 246.602 181.396 245.461C179.174 244.374 174.065 246.46 175.908 250.979C178.715 257.226 186.958 253.097 185.567 247.714C184.621 244.055 181.375 241.508 176.985 243.242C175.935 243.657 175.037 244.393 174.356 245.294C172.154 248.214 172.671 250.073 172.634 251.219C172.58 252.905 172.634 263.207 172.634 263.207" stroke="#F9616A" stroke-width="1.7" stroke-linecap="round"/>
<path d="M152.979 275.697C152.782 276.19 152.27 276.366 151.823 276.134C150.798 275.602 151.476 273.277 152.627 273.171V273.171C154.057 273.04 155.026 273.817 155.399 275.205C155.538 275.722 155.524 276.334 155.174 277.008C154.102 279.068 151.053 279 149.427 276.984C147.878 275.063 148.688 269.816 153.42 270.755C160.022 272.3 157.989 280.903 152.537 280.552C148.873 280.315 145.725 277.738 146.275 273.331C146.421 272.158 146.955 271.047 147.795 270.215C150.227 267.806 152.825 268.325 153.917 268.199C154.929 268.081 167.5 268.017 167.5 268.017" stroke="#F9616A" stroke-width="1.7" stroke-linecap="round"/>
<path d="M159.706 282.14C159.239 282.464 159.167 283.039 159.511 283.432C160.265 284.295 162.382 283.099 162.313 281.955V281.955C162.22 280.43 161.141 279.554 159.614 279.593C159.101 279.606 158.537 279.781 157.974 280.257C156.111 281.832 156.76 284.874 159.092 286.015C161.314 287.102 166.423 285.016 164.58 280.498C161.772 274.25 153.53 278.379 154.921 283.762C155.866 287.421 159.113 289.968 163.502 288.234C164.553 287.819 165.449 287.083 166.136 286.186C168.333 283.316 167.816 281.643 167.853 280.498C167.907 278.811 167.853 268.27 167.853 268.27" stroke="#F9616A" stroke-width="1.7" stroke-linecap="round"/>
<path d="M188.013 275.697C188.21 276.19 188.722 276.366 189.169 276.134C190.194 275.602 189.516 273.277 188.365 273.172V273.172C186.935 273.04 185.966 273.817 185.593 275.205C185.454 275.723 185.468 276.334 185.818 277.008C186.89 279.068 189.939 279 191.565 276.984C193.114 275.063 192.304 269.817 187.572 270.755C180.97 272.3 183.003 280.903 188.455 280.552C192.119 280.316 195.267 277.738 194.717 273.331C194.571 272.158 194.037 271.047 193.197 270.215C190.765 267.806 188.167 268.325 187.075 268.199C186.063 268.082 173.492 268.017 173.492 268.017" stroke="#F9616A" stroke-width="1.7" stroke-linecap="round"/>
<path d="M181.286 282.14C181.753 282.464 181.824 283.039 181.481 283.432C180.726 284.295 178.61 283.099 178.679 281.955V281.955C178.771 280.43 179.851 279.554 181.378 279.593C181.891 279.606 182.455 279.781 183.018 280.257C184.88 281.832 184.231 284.874 181.9 286.015C179.678 287.102 174.569 285.016 176.412 280.497C179.219 274.25 187.462 278.379 186.071 283.762C185.125 287.421 181.879 289.968 177.489 288.234C176.439 287.819 175.541 287.083 174.861 286.182C172.658 283.262 173.175 281.403 173.138 280.257C173.084 278.571 173.138 268.27 173.138 268.27" stroke="#F9616A" stroke-width="1.7" stroke-linecap="round"/>
<path d="M150.215 246.625C151.782 237.106 163.233 233.25 170.461 242.287C181.186 230.84 191.427 241.805 190.703 246.625C199.017 248.794 202.632 260.482 194.8 266.265C204.199 272.17 199.017 285.906 190.703 285.906C189.016 295.425 175.523 296.51 170.461 289.16C165.663 296.554 153.469 296.871 150.215 285.906C141.66 285.906 137.804 272.652 146.119 266.265C142.04 264.191 136.963 250.963 150.215 246.625Z" stroke="#E0BC71" stroke-width="3"/>
<path d="M293.081 51.6118C296.478 40.8342 308.779 36.8512 317.374 44.4658C326.724 35.3716 340.872 43.8062 341.718 51.6118C350.504 53.4123 354.839 66.9586 347.927 75.0418C355.659 83.7107 351.91 97.4169 340.664 99.1577C335.393 109.717 325.786 110.112 317.374 104.723C309.151 112.923 294.391 108.12 292.048 99.3176C281.387 99.3176 278.789 81.0157 286.286 75.0418C282.069 71.7611 279.726 55.9462 293.081 51.6118Z" fill="white" stroke="#3B6C46" stroke-width="3"/>
<path d="M316.911 72.2248L316.897 73.4113L315.568 73.3956L314.691 74.0559L315.552 74.7369L316.881 74.7527L316.864 76.1971L317.469 76.8751L318.091 76.2117L318.108 74.7672L319.386 74.7824L320.314 74.1226L319.402 73.4411L318.124 73.4259L318.138 72.2393L317.536 71.2519L316.911 72.2248Z" fill="#1B3BA4"/>
<path d="M300.664 64.6135C300.473 64.1342 299.975 63.9636 299.541 64.1891C298.544 64.7065 299.204 66.9665 300.322 67.0691V67.0691C301.713 67.1967 302.655 66.4413 303.017 65.0924C303.153 64.589 303.139 63.9945 302.798 63.3395C301.757 61.3367 298.792 61.4026 297.211 63.3623C295.705 65.2299 296.492 70.3311 301.093 69.4187C307.511 67.9165 305.535 59.5522 300.235 59.8939C296.686 60.1226 293.636 62.6103 294.14 66.865C294.279 68.0391 294.814 69.1516 295.66 69.9783C298.014 72.2806 300.52 71.7814 301.577 71.9038C302.561 72.0178 314.782 72.0804 314.782 72.0804" stroke="#F9616A" stroke-width="1.7" stroke-linecap="round"/>
<path d="M307.205 58.3503C306.75 58.0351 306.681 57.4762 307.015 57.0943C307.748 56.2553 309.806 57.4175 309.739 58.53V58.53C309.649 60.0126 308.6 60.8644 307.115 60.8268C306.616 60.8142 306.068 60.6437 305.52 60.181C303.71 58.6499 304.341 55.6918 306.607 54.5827C308.768 53.5258 313.735 55.5542 311.943 59.9471C309.214 66.0206 301.2 62.0064 302.552 56.7733C303.468 53.2282 306.606 50.7566 310.851 52.408C311.904 52.8175 312.801 53.5554 313.485 54.4548C315.587 57.222 315.09 58.8388 315.125 59.9471C315.178 61.5863 315.125 71.8352 315.125 71.8352" stroke="#F9616A" stroke-width="1.7" stroke-linecap="round"/>
<path d="M334.022 64.6111C334.214 64.1318 334.712 63.9611 335.146 64.1866C336.143 64.7041 335.483 66.9641 334.365 67.0667V67.0667C332.974 67.1943 332.032 66.4388 331.669 65.09C331.534 64.5865 331.548 63.9921 331.889 63.337C332.93 61.3343 335.895 61.4001 337.475 63.3598C338.981 65.2274 338.195 70.3287 333.594 69.4162C327.175 67.9141 329.152 59.5498 334.452 59.8914C338.001 60.1202 341.051 62.6078 340.547 66.8626C340.407 68.0367 339.872 69.1492 339.027 69.9758C336.673 72.2782 334.167 71.7789 333.11 71.9014C332.126 72.0154 319.905 72.078 319.905 72.078" stroke="#F9616A" stroke-width="1.7" stroke-linecap="round"/>
<path d="M327.482 58.3477C327.936 58.0325 328.006 57.4737 327.672 57.0918C326.938 56.2527 324.881 57.415 324.948 58.5274V58.5274C325.038 60.0101 326.087 60.8619 327.572 60.8243C328.071 60.8117 328.619 60.6412 329.166 60.1784C330.977 58.6473 330.346 55.6892 328.079 54.5802C325.919 53.5233 320.952 55.5516 322.744 59.9445C325.473 66.018 333.487 62.0039 332.134 56.7707C331.218 53.2257 328.081 50.7541 323.836 52.4055C322.783 52.815 321.884 53.5518 321.207 54.4561C319.099 57.2727 319.597 59.0692 319.561 60.1784C319.509 61.8177 319.561 71.8327 319.561 71.8327" stroke="#F9616A" stroke-width="1.7" stroke-linecap="round"/>
<path d="M300.452 83.9763C300.261 84.4556 299.762 84.6263 299.328 84.4008C298.331 83.8833 298.991 81.6233 300.109 81.5207V81.5207C301.5 81.3931 302.442 82.1486 302.805 83.4974C302.94 84.0009 302.926 84.5953 302.585 85.2504C301.544 87.2531 298.579 87.1873 296.999 85.2276C295.493 83.36 296.28 78.2587 300.88 79.1712C307.299 80.6733 305.322 89.0376 300.022 88.696C296.473 88.4672 293.423 85.9796 293.928 81.7248C294.067 80.5507 294.602 79.4382 295.447 78.6116C297.802 76.3092 300.307 76.8085 301.364 76.686C302.348 76.572 314.569 76.5094 314.569 76.5094" stroke="#F9616A" stroke-width="1.7" stroke-linecap="round"/>
<path d="M306.992 90.2401C306.538 90.5553 306.468 91.1141 306.802 91.496C307.536 92.335 309.594 91.1728 309.526 90.0603V90.0603C309.437 88.5777 308.387 87.7259 306.902 87.7635C306.403 87.7761 305.855 87.9466 305.308 88.4094C303.497 89.9405 304.128 92.8985 306.395 94.0076C308.555 95.0645 313.522 93.0362 311.73 88.6432C309.001 82.5698 300.988 86.5839 302.34 91.8171C303.256 95.3621 306.393 97.8337 310.639 96.1823C311.691 95.7728 312.589 95.0349 313.272 94.1355C315.375 91.3683 314.877 89.7516 314.913 88.6432C314.965 87.004 314.913 76.7551 314.913 76.7551" stroke="#F9616A" stroke-width="1.7" stroke-linecap="round"/>
<path d="M334.513 83.9765C334.704 84.4558 335.202 84.6264 335.636 84.4009C336.633 83.8834 335.973 81.6235 334.855 81.5209V81.5209C333.464 81.3933 332.522 82.1487 332.16 83.4976C332.024 84.001 332.038 84.5954 332.379 85.2505C333.42 87.2533 336.385 87.1874 337.966 85.2277C339.472 83.3601 338.685 78.2589 334.084 79.1713C327.666 80.6735 329.642 89.0378 334.942 88.6961C338.491 88.4673 341.541 85.9797 341.037 81.725C340.898 80.5508 340.363 79.4383 339.517 78.6117C337.163 76.3093 334.657 76.8086 333.6 76.6861C332.616 76.5721 320.395 76.5095 320.395 76.5095" stroke="#F9616A" stroke-width="1.7" stroke-linecap="round"/>
<path d="M327.972 90.2401C328.427 90.5552 328.496 91.1141 328.162 91.496C327.429 92.335 325.371 91.1728 325.438 90.0603V90.0603C325.528 88.5777 326.577 87.7259 328.062 87.7635C328.561 87.7761 329.109 87.9466 329.656 88.4094C331.467 89.9405 330.836 92.8985 328.569 94.0076C326.409 95.0645 321.442 93.0362 323.234 88.6432C325.963 82.5697 333.977 86.5839 332.624 91.817C331.708 95.3621 328.571 97.8337 324.326 96.1823C323.273 95.7728 322.374 95.036 321.697 94.1316C319.589 91.3151 320.087 89.5186 320.051 88.4093C319.999 86.7701 320.051 76.7551 320.051 76.7551" stroke="#F9616A" stroke-width="1.7" stroke-linecap="round"/>
<path d="M297.765 55.7117C299.288 46.4572 310.421 42.7086 317.448 51.4946C327.875 40.3656 337.831 51.026 337.128 55.7117C345.211 57.8205 348.726 69.1838 341.111 74.8067C350.249 80.5471 345.211 93.9019 337.128 93.9019C335.488 103.157 322.37 104.211 317.448 97.0649C312.783 104.254 300.928 104.562 297.765 93.9019C289.448 93.9019 285.699 81.0155 293.782 74.8067C289.817 72.7899 284.881 59.9292 297.765 55.7117Z" stroke="#E0BC71" stroke-width="3"/>
<path d="M108.722 177.735C113.235 163.416 129.577 158.125 140.997 168.241C153.418 156.159 172.215 167.365 173.34 177.735C185.013 180.127 190.772 198.125 181.589 208.864C191.862 220.381 186.881 238.591 171.94 240.903C164.936 254.933 152.173 255.456 140.997 248.297C130.073 259.192 110.462 252.811 107.349 241.116C94 240.903 89.7338 216.8 99.6947 208.864C94.0917 204.505 90.9785 183.494 108.722 177.735Z" fill="white" stroke="#3B6C46" stroke-width="3"/>
<path d="M140.381 205.121L140.362 206.697L138.597 206.676L137.432 207.554L138.576 208.458L140.341 208.479L140.319 210.398L141.123 211.299L141.948 210.417L141.971 208.498L143.669 208.519L144.902 207.642L143.69 206.737L141.992 206.717L142.011 205.14L141.212 203.829L140.381 205.121Z" fill="#1B3BA4"/>
<path d="M118.797 195.009C118.543 194.372 117.881 194.145 117.304 194.445C115.98 195.132 116.856 198.135 118.342 198.271V198.271C120.19 198.441 121.441 197.437 121.923 195.645C122.103 194.976 122.084 194.186 121.631 193.316C120.248 190.655 116.309 190.743 114.209 193.346C112.208 195.828 113.254 202.605 119.366 201.393C127.894 199.397 125.268 188.284 118.226 188.738C113.352 189.052 109.186 192.574 110.213 198.58C110.412 199.745 110.942 200.843 111.74 201.715C114.982 205.254 118.543 204.525 120.009 204.694C121.316 204.846 137.553 204.929 137.553 204.929" stroke="#F9616A" stroke-width="1.7" stroke-linecap="round"/>
<path d="M127.486 186.688C126.882 186.269 126.79 185.527 127.234 185.019C128.208 183.904 130.942 185.449 130.853 186.927V186.927C130.734 188.896 129.34 190.028 127.367 189.978C126.704 189.961 125.975 189.735 125.248 189.12C122.843 187.086 123.681 183.156 126.693 181.682C129.563 180.278 136.162 182.973 133.781 188.809C130.155 196.878 119.509 191.545 121.305 184.593C122.559 179.74 126.945 176.402 132.847 179.007C133.88 179.464 134.773 180.193 135.484 181.071C138.676 185.019 137.96 187.279 138.009 188.809C138.079 190.987 138.01 204.603 138.01 204.603" stroke="#F9616A" stroke-width="1.7" stroke-linecap="round"/>
<path d="M163.116 195.006C163.37 194.369 164.031 194.142 164.608 194.442C165.933 195.129 165.056 198.132 163.571 198.268V198.268C161.723 198.438 160.471 197.434 159.989 195.642C159.81 194.973 159.828 194.183 160.281 193.313C161.664 190.652 165.604 190.74 167.703 193.343C169.704 195.825 168.659 202.602 162.546 201.39C154.019 199.394 156.645 188.281 163.686 188.735C168.56 189.05 172.726 192.571 171.699 198.577C171.5 199.742 170.971 200.84 170.172 201.712C166.93 205.251 163.369 204.522 161.904 204.691C160.596 204.843 144.359 204.926 144.359 204.926" stroke="#F9616A" stroke-width="1.7" stroke-linecap="round"/>
<path d="M154.426 186.684C155.03 186.266 155.122 185.523 154.678 185.016C153.704 183.901 150.97 185.445 151.059 186.923V186.923C151.178 188.893 152.573 190.025 154.545 189.975C155.208 189.958 155.937 189.732 156.664 189.117C159.069 187.083 158.231 183.153 155.219 181.679C152.35 180.275 145.751 182.97 148.131 188.806C151.757 196.875 162.403 191.542 160.607 184.589C159.353 179.737 154.967 176.398 149.065 179.004C148.032 179.46 147.138 180.189 146.432 181.071C143.236 185.069 143.952 187.586 143.903 189.117C143.833 191.295 143.903 204.6 143.903 204.6" stroke="#F9616A" stroke-width="1.7" stroke-linecap="round"/>
<path d="M118.514 220.734C118.26 221.371 117.599 221.597 117.022 221.298C115.697 220.61 116.574 217.608 118.059 217.471V217.471C119.907 217.302 121.159 218.306 121.641 220.098C121.82 220.766 121.802 221.556 121.349 222.427C119.966 225.087 116.026 225 113.927 222.396C111.926 219.915 112.971 213.138 119.084 214.35C127.611 216.346 124.985 227.458 117.944 227.004C113.07 226.69 108.904 223.169 109.931 217.163C110.13 215.997 110.659 214.9 111.458 214.028C114.7 210.488 118.261 211.218 119.726 211.048C121.034 210.897 137.271 210.814 137.271 210.814" stroke="#F9616A" stroke-width="1.7" stroke-linecap="round"/>
<path d="M127.204 229.056C126.6 229.475 126.508 230.217 126.952 230.724C127.926 231.839 130.66 230.295 130.571 228.817V228.817C130.451 226.847 129.057 225.716 127.085 225.765C126.422 225.782 125.693 226.009 124.966 226.624C122.561 228.658 123.399 232.588 126.41 234.061C129.28 235.465 135.879 232.771 133.499 226.934C129.873 218.865 119.226 224.198 121.023 231.151C122.277 236.003 126.663 239.342 132.565 236.736C133.598 236.28 134.491 235.551 135.201 234.672C138.394 230.725 137.678 228.465 137.727 226.934C137.797 224.756 137.727 211.14 137.727 211.14" stroke="#F9616A" stroke-width="1.7" stroke-linecap="round"/>
<path d="M163.767 220.734C164.021 221.371 164.683 221.598 165.26 221.298C166.584 220.611 165.708 217.608 164.222 217.472V217.472C162.374 217.302 161.122 218.306 160.641 220.098C160.461 220.767 160.48 221.556 160.932 222.427C162.316 225.088 166.255 225 168.354 222.396C170.355 219.915 169.31 213.138 163.198 214.35C154.67 216.346 157.296 227.458 164.337 227.005C169.212 226.69 173.378 223.169 172.351 217.163C172.151 215.998 171.622 214.9 170.823 214.028C167.581 210.488 164.02 211.218 162.555 211.048C161.248 210.897 145.011 210.814 145.011 210.814" stroke="#F9616A" stroke-width="1.7" stroke-linecap="round"/>
<path d="M155.077 229.056C155.681 229.474 155.773 230.217 155.33 230.724C154.355 231.839 151.621 230.295 151.71 228.817V228.817C151.83 226.847 153.224 225.715 155.197 225.765C155.859 225.782 156.588 226.009 157.315 226.624C159.72 228.658 158.882 232.588 155.871 234.061C153.001 235.465 146.402 232.771 148.782 226.934C152.408 218.865 163.055 224.198 161.258 231.151C160.004 236.003 155.618 239.342 149.716 236.736C148.683 236.28 147.789 235.551 147.083 234.669C143.887 230.671 144.603 228.155 144.554 226.624C144.484 224.446 144.554 211.14 144.554 211.14" stroke="#F9616A" stroke-width="1.7" stroke-linecap="round"/>
<path d="M114.945 183.182C116.968 170.887 131.759 165.907 141.095 177.579C154.949 162.794 168.176 176.957 167.242 183.182C177.981 185.984 182.65 201.081 172.534 208.551C184.673 216.178 177.981 233.921 167.242 233.921C165.063 246.216 147.634 247.617 141.095 238.123C134.898 247.675 119.147 248.084 114.945 233.921C103.895 233.921 98.9142 216.8 109.653 208.551C104.385 205.872 97.8271 188.785 114.945 183.182Z" stroke="#E0BC71" stroke-width="3"/>
<path d="M220.772 41.7845C224.994 28.3895 240.282 23.4393 250.965 32.9031C262.585 21.6003 280.169 32.0834 281.221 41.7845C292.141 44.0223 297.529 60.8584 288.938 70.9047C298.548 81.6789 293.889 98.7138 279.911 100.877C273.36 114.002 261.42 114.492 250.965 107.794C240.745 117.986 222.4 112.016 219.488 101.076C206.238 101.076 203.009 78.3295 212.327 70.9047C207.086 66.8273 204.173 47.1716 220.772 41.7845Z" fill="white" stroke="#3B6C46" stroke-width="3"/>
<path d="M250.389 67.4035L250.371 68.8781L248.72 68.8585L247.63 69.6791L248.7 70.5254L250.352 70.545L250.33 72.3401L251.083 73.1826L251.855 72.3582L251.876 70.5631L253.464 70.5819L254.618 69.762L253.484 68.915L251.896 68.8962L251.914 67.4216L251.166 66.1944L250.389 67.4035Z" fill="#1B3BA4"/>
<path d="M230.197 57.9437C229.959 57.348 229.34 57.1359 228.8 57.4162C227.562 58.0593 228.381 60.8681 229.771 60.9956V60.9956C231.5 61.1542 232.671 60.2153 233.121 58.5389C233.29 57.9132 233.272 57.1744 232.849 56.3602C231.554 53.8711 227.869 53.9529 225.905 56.3886C224.034 58.7098 225.012 65.0498 230.729 63.9158C238.707 62.0488 236.251 51.6532 229.663 52.0778C225.134 52.3698 221.258 55.6218 222.148 61.1723C222.336 62.3397 222.866 63.439 223.674 64.3019C226.686 67.5167 229.972 66.8471 231.331 67.0045C232.554 67.1462 247.743 67.224 247.743 67.224" stroke="#F9616A" stroke-width="1.7" stroke-linecap="round"/>
<path d="M238.326 50.1595C237.761 49.7678 237.675 49.0732 238.09 48.5986C239.001 47.5558 241.559 49.0003 241.475 50.3829V50.3829C241.364 52.2256 240.06 53.2843 238.214 53.2376C237.594 53.2219 236.913 53.01 236.232 52.4348C233.982 50.5319 234.766 46.8554 237.584 45.4771C240.268 44.1635 246.442 46.6844 244.215 52.1442C240.823 59.6926 230.863 54.7036 232.544 48.1996C233.71 43.6877 237.77 40.575 243.24 42.931C244.278 43.3778 245.173 44.1101 245.877 44.9928C248.783 48.6316 248.125 50.7238 248.17 52.1442C248.236 54.1815 248.17 66.9194 248.17 66.9194" stroke="#F9616A" stroke-width="1.7" stroke-linecap="round"/>
<path d="M271.657 57.9409C271.894 57.3452 272.513 57.1331 273.053 57.4134C274.292 58.0565 273.472 60.8653 272.082 60.9928V60.9928C270.353 61.1514 269.183 60.2125 268.732 58.5361C268.564 57.9104 268.581 57.1716 269.005 56.3574C270.299 53.8683 273.984 53.9501 275.948 56.3858C277.82 58.707 276.842 65.047 271.124 63.913C263.147 62.046 265.603 51.6504 272.19 52.075C276.72 52.367 280.595 55.619 279.705 61.1695C279.518 62.3369 278.988 63.4362 278.179 64.299C275.168 67.5139 271.882 66.8443 270.523 67.0017C269.3 67.1434 254.11 67.2212 254.11 67.2212" stroke="#F9616A" stroke-width="1.7" stroke-linecap="round"/>
<path d="M263.528 50.1564C264.092 49.7647 264.179 49.0701 263.764 48.5955C262.852 47.5527 260.294 48.9972 260.378 50.3798V50.3798C260.489 52.2225 261.794 53.2812 263.639 53.2345C264.259 53.2188 264.941 53.0069 265.621 52.4318C267.871 50.5288 267.087 46.8524 264.27 45.474C261.585 44.1604 255.412 46.6813 257.638 52.1411C261.031 59.6896 270.99 54.7006 269.31 48.1965C268.144 43.6847 264.083 40.5719 258.613 42.9279C257.576 43.3747 256.68 44.106 255.98 44.9929C253.07 48.6821 253.729 51.0107 253.683 52.4318C253.618 54.4691 253.683 66.9163 253.683 66.9163" stroke="#F9616A" stroke-width="1.7" stroke-linecap="round"/>
<path d="M229.933 82.0092C229.695 82.6049 229.076 82.817 228.536 82.5367C227.298 81.8936 228.117 79.0847 229.507 78.9572V78.9572C231.236 78.7986 232.407 79.7375 232.857 81.414C233.026 82.0397 233.008 82.7785 232.585 83.5926C231.29 86.0818 227.605 86 225.641 83.5643C223.77 81.2431 224.748 74.903 230.465 76.0371C238.443 77.904 235.986 88.2997 229.399 87.875C224.87 87.5831 220.994 84.3311 221.884 78.7806C222.072 77.6132 222.602 76.5139 223.41 75.651C226.422 72.4362 229.707 73.1058 231.067 72.9484C232.29 72.8067 247.479 72.7289 247.479 72.7289" stroke="#F9616A" stroke-width="1.7" stroke-linecap="round"/>
<path d="M238.062 89.794C237.497 90.1857 237.411 90.8803 237.826 91.3549C238.737 92.3977 241.295 90.9532 241.211 89.5706V89.5706C241.1 87.7279 239.796 86.6692 237.95 86.7159C237.33 86.7316 236.648 86.9435 235.968 87.5187C233.718 89.4216 234.502 93.098 237.319 94.4764C240.004 95.79 246.177 93.2691 243.951 87.8093C240.558 80.2608 230.599 85.2499 232.28 91.7539C233.445 96.2657 237.506 99.3785 242.976 97.0225C244.014 96.5757 244.909 95.8434 245.613 94.9607C248.519 91.3219 247.861 89.2297 247.906 87.8093C247.971 85.772 247.906 73.0341 247.906 73.0341" stroke="#F9616A" stroke-width="1.7" stroke-linecap="round"/>
<path d="M272.266 82.0093C272.503 82.605 273.122 82.8171 273.662 82.5368C274.901 81.8937 274.081 79.0849 272.691 78.9574V78.9574C270.963 78.7988 269.792 79.7377 269.341 81.4141C269.173 82.0398 269.191 82.7786 269.614 83.5928C270.908 86.0819 274.593 86.0001 276.557 83.5644C278.429 81.2432 277.451 74.9032 271.733 76.0372C263.756 77.9042 266.212 88.2998 272.799 87.8752C277.329 87.5832 281.205 84.3312 280.314 78.7807C280.127 77.6133 279.597 76.514 278.789 75.6512C275.777 72.4363 272.491 73.1059 271.132 72.9485C269.909 72.8068 254.72 72.729 254.72 72.729" stroke="#F9616A" stroke-width="1.7" stroke-linecap="round"/>
<path d="M264.137 89.794C264.702 90.1857 264.788 90.8803 264.373 91.3549C263.461 92.3977 260.904 90.9533 260.987 89.5706V89.5706C261.099 87.7279 262.403 86.6692 264.248 86.7159C264.868 86.7316 265.55 86.9435 266.23 87.5187C268.48 89.4216 267.696 93.0981 264.879 94.4765C262.194 95.7901 256.021 93.2691 258.248 87.8094C261.64 80.2609 271.6 85.2499 269.919 91.7539C268.753 96.2658 264.692 99.3785 259.222 97.0226C258.185 96.5757 257.289 95.8444 256.589 94.9576C253.679 91.2684 254.338 88.9397 254.292 87.5187C254.227 85.4813 254.292 73.0341 254.292 73.0341" stroke="#F9616A" stroke-width="1.7" stroke-linecap="round"/>
<path d="M226.594 46.8802C228.486 35.3781 242.323 30.7191 251.056 41.6389C264.017 27.8071 276.39 41.0565 275.517 46.8802C285.563 49.5011 289.931 63.6241 280.467 70.6125C291.824 77.747 285.563 94.3451 275.517 94.3451C273.478 105.847 257.174 107.158 251.056 98.2763C245.259 107.212 230.525 107.594 226.594 94.3451C216.256 94.3451 211.597 78.3292 221.643 70.6125C216.715 68.1059 210.58 52.1219 226.594 46.8802Z" stroke="#E0BC71" stroke-width="3"/>
<path d="M120.231 72.2512C127.046 50.6288 151.724 42.638 168.969 57.9146C187.726 39.6696 216.11 56.5915 217.809 72.2512C235.436 75.8635 244.133 103.041 230.266 119.257C245.778 136.649 238.257 164.147 215.694 167.639C205.118 188.825 185.846 189.616 168.969 178.805C152.472 195.256 122.859 185.62 118.158 167.96C99.4999 167.639 91.5577 131.242 106.599 119.257C98.1384 112.675 93.4373 80.947 120.231 72.2512Z" fill="white" stroke="#3B6C46" stroke-width="3"/>
<path d="M168.039 113.606L168.011 115.986L165.344 115.954L163.585 117.279L165.312 118.645L167.979 118.677L167.944 121.574L169.159 122.934L170.405 121.604L170.44 118.706L173.004 118.736L174.865 117.413L173.036 116.046L170.472 116.015L170.5 113.635L169.293 111.654L168.039 113.606Z" fill="#1B3BA4"/>
<path d="M135.445 98.3353C135.061 97.3738 134.062 97.0314 133.191 97.4838C131.191 98.522 132.514 103.056 134.758 103.262V103.262C137.548 103.518 139.438 102.002 140.166 99.2961C140.437 98.2861 140.409 97.0935 139.725 95.7793C137.636 91.7613 131.688 91.8934 128.517 95.8251C125.496 99.572 127.075 109.806 136.304 107.976C149.182 104.962 145.217 88.1812 134.584 88.8666C126.985 89.3565 120.526 95.0075 122.658 104.621C122.914 105.775 123.44 106.862 124.192 107.774C129.24 113.899 134.972 112.695 137.275 112.961C139.249 113.19 163.768 113.316 163.768 113.316" stroke="#F9616A" stroke-width="2.5" stroke-linecap="round"/>
<path d="M148.567 85.7701C147.655 85.1377 147.516 84.0165 148.185 83.2504C149.657 81.5671 153.786 83.8988 153.651 86.1307V86.1307C153.471 89.1052 151.365 90.8141 148.386 90.7387C147.385 90.7134 146.285 90.3713 145.187 89.4429C141.555 86.3711 142.821 80.4366 147.368 78.2116C151.702 76.0911 161.667 80.1604 158.073 88.9737C152.597 101.159 136.52 93.1052 139.233 82.6063C141.182 75.0647 148.141 69.9447 157.448 74.5403C158.461 75.0404 159.354 75.7641 160.088 76.6223C165.545 82.9977 164.38 86.5778 164.457 88.9737C164.563 92.2624 164.457 112.824 164.457 112.824" stroke="#F9616A" stroke-width="2.5" stroke-linecap="round"/>
<path d="M202.369 98.3308C202.753 97.3693 203.752 97.0269 204.624 97.4793C206.623 98.5175 205.3 103.052 203.056 103.257V103.257C200.266 103.513 198.376 101.998 197.649 99.2916C197.377 98.2816 197.405 97.089 198.089 95.7748C200.178 91.7568 206.127 91.8889 209.297 95.8206C212.318 99.5674 210.74 109.802 201.51 107.971C188.633 104.957 192.598 88.1767 203.231 88.8621C210.83 89.352 217.289 95.003 215.156 104.616C214.9 105.771 214.374 106.857 213.622 107.77C208.574 113.895 202.843 112.69 200.539 112.957C198.565 113.186 174.046 113.311 174.046 113.311" stroke="#F9616A" stroke-width="2.5" stroke-linecap="round"/>
<path d="M189.247 85.7651C190.159 85.1328 190.298 84.0116 189.629 83.2454C188.157 81.5621 184.028 83.8938 184.163 86.1257V86.1257C184.343 89.1002 186.449 90.8091 189.428 90.7337C190.429 90.7084 191.529 90.3663 192.627 89.4379C196.259 86.3661 194.993 80.4316 190.446 78.2066C186.112 76.0862 176.147 80.1555 179.741 88.9687C185.217 101.154 201.294 93.1002 198.581 82.6013C196.632 75.0597 189.673 69.9397 180.366 74.5353C179.353 75.0354 178.459 75.7585 177.728 76.6194C172.269 83.0466 173.433 87.0417 173.357 89.4379C173.251 92.7266 173.357 112.819 173.357 112.819" stroke="#F9616A" stroke-width="2.5" stroke-linecap="round"/>
<path d="M135.019 137.182C134.635 138.144 133.636 138.486 132.764 138.034C130.765 136.996 132.088 132.462 134.332 132.256V132.256C137.122 132 139.012 133.515 139.739 136.222C140.011 137.232 139.982 138.424 139.299 139.738C137.21 143.756 131.261 143.624 128.091 139.693C125.07 135.946 126.648 125.712 135.878 127.542C148.755 130.556 144.79 147.336 134.157 146.651C126.558 146.161 120.099 140.51 122.232 130.897C122.488 129.743 123.014 128.656 123.766 127.743C128.814 121.618 134.545 122.823 136.849 122.556C138.823 122.328 163.342 122.202 163.342 122.202" stroke="#F9616A" stroke-width="2.5" stroke-linecap="round"/>
<path d="M148.14 149.749C147.229 150.381 147.089 151.502 147.759 152.268C149.231 153.952 153.359 151.62 153.224 149.388V149.388C153.044 146.414 150.939 144.705 147.96 144.78C146.959 144.805 145.859 145.147 144.761 146.076C141.129 149.148 142.394 155.082 146.942 157.307C151.276 159.428 161.241 155.358 157.646 146.545C152.171 134.36 136.094 142.413 138.807 152.912C140.755 160.454 147.715 165.574 157.022 160.978C158.035 160.478 158.927 159.755 159.662 158.896C165.118 152.521 163.954 148.941 164.031 146.545C164.137 143.256 164.031 122.695 164.031 122.695" stroke="#F9616A" stroke-width="2.5" stroke-linecap="round"/>
<path d="M203.353 137.183C203.736 138.144 204.736 138.487 205.607 138.034C207.607 136.996 206.284 132.462 204.04 132.256V132.256C201.249 132 199.359 133.516 198.632 136.222C198.361 137.232 198.389 138.424 199.072 139.739C201.162 143.757 207.11 143.625 210.28 139.693C213.302 135.946 211.723 125.712 202.493 127.542C189.616 130.556 193.581 147.337 204.214 146.651C211.813 146.161 218.272 140.51 216.139 130.897C215.883 129.743 215.358 128.656 214.606 127.744C209.557 121.619 203.826 122.823 201.523 122.557C199.548 122.328 175.03 122.202 175.03 122.202" stroke="#F9616A" stroke-width="2.5" stroke-linecap="round"/>
<path d="M190.231 149.749C191.143 150.381 191.282 151.502 190.612 152.268C189.14 153.952 185.012 151.62 185.147 149.388V149.388C185.327 146.413 187.432 144.705 190.411 144.78C191.412 144.805 192.512 145.147 193.61 146.076C197.242 149.148 195.977 155.082 191.429 157.307C187.095 159.428 177.13 155.358 180.725 146.545C186.201 134.36 202.277 142.413 199.565 152.912C197.616 160.454 190.656 165.574 181.349 160.978C180.336 160.478 179.443 159.755 178.712 158.894C173.252 152.467 174.417 148.472 174.34 146.076C174.234 142.787 174.34 122.695 174.34 122.695" stroke="#F9616A" stroke-width="2.5" stroke-linecap="round"/>
<path d="M129.628 80.4766C132.684 61.9099 155.019 54.3892 169.117 72.016C190.037 49.6886 210.011 71.076 208.6 80.4766C224.817 84.7073 231.868 107.505 216.591 118.786C234.923 130.302 224.817 157.095 208.6 157.095C205.31 175.662 178.991 177.777 169.117 163.441C159.759 177.864 135.974 178.482 129.628 157.095C112.942 157.095 105.421 131.242 121.637 118.786C113.682 114.739 103.779 88.9378 129.628 80.4766Z" stroke="#E0BC71" stroke-width="4"/>
<path d="M101.5 127C85 113 70.6672 120.475 66.5 123C59.5884 127.188 51.4606 143.23 62.9228 155.731C74.385 168.231 90.829 158.388 93.119 150.752C95.2751 143.562 93.119 131.542 78.7978 131.368C65.3082 131.204 63.6679 150.328 75.7443 152.632C77.3097 152.93 78.9518 152.746 80.4117 152.107C87.2317 149.121 86.6629 141.587 81.5 140C76.5907 138.491 74.5 142 76 144" stroke="#3B6C46" stroke-width="2" stroke-linecap="round"/>
<path d="M104.716 242.379C89.3271 250.609 90.6887 263.575 91.3484 267.448C92.4425 273.874 102.069 284.722 114.841 279.827C127.613 274.932 125.101 259.681 120.051 255.701C115.296 251.954 105.641 250.011 101.268 260.702C97.215 270.613 110.573 277.448 116.055 269.679C116.974 268.377 117.414 266.757 117.274 265.17C116.779 259.543 111.192 257.919 108.544 261.232C105.957 264.468 107.97 267.075 109.915 266.543" stroke="#3B6C46" stroke-width="2" stroke-linecap="round"/>
<path d="M203.743 51.8113C210.368 36.4486 201.808 26.511 199 24C194.342 19.8354 179.326 17.018 172.672 28.3169C165.203 41 177.01 49.5515 183.174 49.5199C188.978 49.4901 197.378 45.1809 194.272 34.5523C191.403 24.7359 177.397 27.5313 177.817 36.5521C177.892 38.144 178.558 39.6903 179.669 40.8322C183.395 44.6595 188.493 42.5415 188.5 38.5C188.507 34.5291 185.44 33.7758 184.3 35.3367" stroke="#3B6C46" stroke-width="2" stroke-linecap="round"/>
<path d="M202.238 27.2575C197.261 15.715 203.692 8.24857 205.802 6.362C209.301 3.23301 220.583 1.11616 225.583 9.60539C230.582 18.0946 222.323 25.5596 217.692 25.5359C213.332 25.5135 207.02 22.2759 209.354 14.2902C211.445 7.13547 221.411 8.898 221.717 15.1973C221.794 16.7891 221.11 18.3909 219.889 19.4152C217.144 21.7176 213.696 20.1375 213.691 17.2563C213.686 14.2728 215.99 13.7069 216.846 14.8796" stroke="#3B6C46" stroke-width="2" stroke-linecap="round"/>
<path d="M347.828 75.9064C353.064 64.4791 362.916 64.2533 365.73 64.5563C370.398 65.0589 379.526 72.0181 376.572 81.4165C373.617 90.8149 362.542 89.6829 359.458 86.2282C356.554 82.9756 354.73 76.1205 362.223 72.5044C368.936 69.2645 374.303 77.8451 369.83 82.2915C368.7 83.4151 367.052 83.9797 365.474 83.7593C361.926 83.2639 360.789 79.6449 362.925 77.7113C365.137 75.709 367.101 77.0409 366.804 78.4624" stroke="#3B6C46" stroke-width="2" stroke-linecap="round"/>
<path d="M143.094 290.989C147.579 298.162 144.058 303.783 142.846 305.253C139.678 309.095 133.545 310.245 129.356 305.105C125.168 299.965 129.904 294.159 132.988 293.704C135.891 293.276 140.419 294.789 139.678 300.339C139.056 304.994 133.048 305.151 131.592 301.739C130.966 300.273 131.43 298.399 132.727 297.473C134.276 296.366 136.229 297.11 136.491 298.806C136.797 300.791 135.322 301.401 134.633 300.708" stroke="#3B6C46" stroke-width="2" stroke-linecap="round"/>
<path d="M292 49C299.23 44.6072 298.651 37.0901 298.229 35.2326C297.125 30.3765 292.164 26.5928 286.112 29.3019C280.06 32.0109 281.681 39.3258 284.231 41.1179C286.633 42.8051 291.357 43.4889 293.19 38.1979C294.726 33.7598 289.43 30.9195 286.595 33.3133C285.378 34.3415 284.95 36.2241 285.692 37.6343C286.579 39.319 288.658 39.5321 289.654 38.1348C290.82 36.5 289.776 35.2913 288.849 35.6008" stroke="#3B6C46" stroke-width="2" stroke-linecap="round"/>
<path d="M85.565 118.963C73.2576 116.407 70.8399 106.854 70.5076 104.043C69.9565 99.3811 74.7041 88.9301 84.5248 89.714C94.3455 90.498 95.7123 101.546 93.0327 105.324C90.5098 108.88 84.2341 112.187 79.0378 105.689C74.3822 99.868 81.5495 92.7226 86.8816 96.0906C88.2289 96.9417 89.1469 98.4221 89.2841 100.01C89.5925 103.579 86.3182 105.494 83.9569 103.843C81.5117 102.134 82.372 99.9223 83.824 99.8948" stroke="#3B6C46" stroke-width="2" stroke-linecap="round"/>
<path d="M94.0102 251.844C87.2369 262.433 77.4492 261.288 74.7045 260.597C70.1522 259.451 62.0789 251.291 66.3108 242.394C70.5426 233.497 81.3528 236.157 83.9273 240.007C86.3512 243.631 87.2047 250.673 79.2823 253.213C72.1841 255.489 68.0616 246.246 73.1086 242.464C74.3839 241.508 76.0942 241.178 77.6266 241.616C81.0711 242.599 81.6939 246.341 79.31 247.959C76.8415 249.635 75.0819 248.043 75.5736 246.676" stroke="#3B6C46" stroke-width="2" stroke-linecap="round"/>
<path d="M109.01 174.844C102.237 185.433 92.4492 184.288 89.7045 183.597C85.1522 182.451 77.0789 174.291 81.3108 165.394C85.5426 156.497 96.3528 159.157 98.9273 163.007C101.351 166.631 102.205 173.673 94.2823 176.213C87.1841 178.489 83.0616 169.246 88.1086 165.464C89.3839 164.508 91.0942 164.178 92.6266 164.616C96.0711 165.599 96.6939 169.341 94.31 170.959C91.8415 172.635 90.0819 171.043 90.5736 169.676" stroke="#3B6C46" stroke-width="2" stroke-linecap="round"/>
<path d="M69.1112 121.771C46.1755 125.977 35.3475 111.248 32.813 106.65C28.6094 99.0231 29.468 77.7466 46.8926 72.2337C64.3172 66.7208 74.3836 84.7529 72.4172 93.116C70.5657 100.99 62.6613 112.662 49.1928 105.126C36.4515 97.9969 44.8202 77.6862 57.3688 82.0916C58.8724 82.6195 60.2031 83.604 61.168 84.8723C66.1119 91.3712 61.5041 98.2144 55.7861 96.9114C50.3899 95.6818 50.3238 91.2806 52.7998 90.2191" stroke="#3B6C46" stroke-width="2" stroke-linecap="round"/>
<path d="M92.2717 270.019C95.3865 293.128 80.162 303.247 75.4488 305.561C67.6318 309.399 46.4198 307.534 41.7379 289.868C37.056 272.202 55.5443 263.001 63.8049 265.361C71.5824 267.583 82.8673 276.031 74.7022 289.128C66.978 301.517 47.0862 292.196 52.0806 279.871C52.6791 278.394 53.7254 277.111 55.038 276.207C61.7637 271.576 68.381 276.503 66.8089 282.153C65.3252 287.485 60.9258 287.343 59.9827 284.819" stroke="#3B6C46" stroke-width="2" stroke-linecap="round"/>
<path d="M95 192.858C73.7745 165.948 49.0312 173.349 41.5 175.5C18.7383 182 6.99999 214.5 23.5 233.5C44.0678 257.184 69.1314 241.994 74.5 230.313C79.5546 219.314 76.1616 195.126 54 192.858C31.8384 190.589 23.0981 225.79 45.7469 227.982C61.5 230.313 65.5113 214.112 57.1201 210.576C49.8682 207.521 46.9919 213.966 48.8413 217.317" stroke="#3B6C46" stroke-width="2" stroke-linecap="round"/>
</svg>
