<svg width="309" height="303" viewBox="0 0 309 303" fill="none" xmlns="http://www.w3.org/2000/svg">
<path d="M154.003 140.317L153.943 145.381L148.271 145.314L144.528 148.132L148.203 151.038L153.875 151.105L153.802 157.27L156.386 160.163L159.038 157.332L159.111 151.167L164.565 151.232L168.526 148.417L164.633 145.508L159.179 145.443L159.239 140.379L156.671 136.165L154.003 140.317Z" fill="#1B3BA4"/>
<path d="M84.6616 107.83C83.8457 105.785 81.7195 105.056 79.8658 106.019C75.6116 108.227 78.4266 117.873 83.2 118.311V118.311C89.1365 118.856 93.1574 115.631 94.7047 109.874C95.2821 107.726 95.222 105.188 93.7682 102.393C89.3232 93.8445 76.6684 94.1256 69.9238 102.49C63.4962 110.461 66.8545 132.234 86.4898 128.339C113.886 121.928 105.45 86.2281 82.8295 87.6863C69.8186 88.525 58.3784 96.4757 56.7735 110.209C55.6299 119.995 60.5109 130.187 69.037 135.125C77.1812 139.842 84.8983 138.523 88.5549 138.946C92.7552 139.433 144.917 139.7 144.917 139.7" stroke="#F9616A" stroke-width="7" stroke-linecap="round"/>
<path d="M112.578 81.097C110.638 79.7517 110.342 77.3664 111.767 75.7365C114.898 72.1554 123.681 77.1159 123.394 81.8641V81.8641C123.011 88.1922 118.532 91.8278 112.194 91.6674C110.065 91.6135 107.724 90.8858 105.389 88.9107C97.6612 82.3757 100.354 69.7503 110.029 65.0168C119.249 60.5057 140.448 69.1629 132.802 87.9125C121.152 113.835 86.9495 96.702 92.7211 74.3662C96.1357 61.1521 106.781 51.4325 121.493 53.8769C130.779 55.4198 138.69 61.9753 143.158 70.2602C147.679 78.6409 146.259 84.0137 146.385 87.9125C146.609 94.909 146.385 138.652 146.385 138.652" stroke="#F9616A" stroke-width="7" stroke-linecap="round"/>
<path d="M227.038 107.821C227.854 105.775 229.98 105.047 231.833 106.009C236.088 108.218 233.273 117.863 228.499 118.301V118.301C222.563 118.846 218.542 115.622 216.995 109.865C216.417 107.716 216.477 105.179 217.931 102.383C222.376 93.8347 235.031 94.1158 241.775 102.48C248.203 110.451 244.845 132.224 225.209 128.33C197.814 121.918 206.249 86.2183 228.87 87.6765C241.881 88.5152 253.321 96.466 254.926 110.199C256.069 119.985 251.188 130.178 242.662 135.116C234.518 139.833 226.801 138.513 223.144 138.937C218.944 139.423 166.782 139.69 166.782 139.69" stroke="#F9616A" stroke-width="7" stroke-linecap="round"/>
<path d="M199.122 81.0877C201.061 79.7424 201.358 77.3571 199.932 75.7272C196.801 72.1461 188.018 77.1066 188.306 81.8548V81.8548C188.689 88.1829 193.167 91.8185 199.505 91.6581C201.634 91.6041 203.975 90.8764 206.311 88.9014C214.038 82.3664 211.346 69.741 201.671 65.0075C192.451 60.4964 171.251 69.1535 178.898 87.9032C190.547 113.826 224.75 96.6927 218.978 74.3569C215.564 61.1428 204.918 51.4232 190.207 53.8676C180.921 55.4105 173.001 61.9767 168.614 70.3048C164.005 79.0516 165.44 84.9819 165.315 88.9014C165.09 95.8979 165.315 138.643 165.315 138.643" stroke="#F9616A" stroke-width="7" stroke-linecap="round"/>
<path d="M83.7544 190.475C82.9385 192.521 80.8123 193.249 78.9586 192.287C74.7044 190.078 77.5194 180.432 82.2928 179.995V179.995C88.2293 179.45 92.2502 182.674 93.7974 188.431C94.3749 190.58 94.3148 193.117 92.861 195.913C88.416 204.461 75.7611 204.18 69.0165 195.816C62.589 187.845 65.9472 166.072 85.5826 169.966C112.978 176.378 104.543 212.078 81.9223 210.619C68.9113 209.781 57.4712 201.83 55.8663 188.097C54.7227 178.31 59.6037 168.118 68.1298 163.18C76.2739 158.463 83.9911 159.783 87.6477 159.359C91.8479 158.873 144.01 158.606 144.01 158.606" stroke="#F9616A" stroke-width="7" stroke-linecap="round"/>
<path d="M111.671 217.209C109.731 218.554 109.435 220.939 110.86 222.569C113.991 226.15 122.774 221.19 122.487 216.442V216.442C122.104 210.113 117.625 206.478 111.287 206.638C109.158 206.692 106.817 207.42 104.482 209.395C96.754 215.93 99.4465 228.555 109.121 233.289C118.341 237.8 139.541 229.143 131.894 210.393C120.245 184.471 86.0422 201.604 91.8139 223.939C95.2284 237.154 105.874 246.873 120.585 244.429C129.871 242.886 137.782 236.33 142.251 228.045C146.772 219.665 145.352 214.292 145.477 210.393C145.702 203.397 145.477 159.653 145.477 159.653" stroke="#F9616A" stroke-width="7" stroke-linecap="round"/>
<path d="M229.13 190.475C229.946 192.521 232.072 193.249 233.926 192.287C238.18 190.078 235.365 180.432 230.592 179.995V179.995C224.655 179.45 220.635 182.674 219.087 188.431C218.51 190.58 218.57 193.117 220.024 195.913C224.469 204.461 237.124 204.18 243.868 195.816C250.296 187.845 246.938 166.072 227.302 169.966C199.906 176.378 208.342 212.078 230.963 210.619C243.973 209.781 255.414 201.83 257.018 188.097C258.162 178.31 253.281 168.118 244.755 163.18C236.611 158.463 228.894 159.783 225.237 159.359C221.037 158.873 168.875 158.606 168.875 158.606" stroke="#F9616A" stroke-width="7" stroke-linecap="round"/>
<path d="M201.214 217.208C203.154 218.553 203.45 220.939 202.025 222.569C198.894 226.15 190.111 221.189 190.398 216.441V216.441C190.781 210.113 195.26 206.477 201.598 206.638C203.727 206.692 206.068 207.419 208.403 209.395C216.131 215.93 213.438 228.555 203.764 233.288C194.544 237.8 173.344 229.142 180.991 210.393C192.64 184.47 226.843 201.603 221.071 223.939C217.656 237.153 207.011 246.873 192.3 244.428C183.014 242.885 175.094 236.319 170.706 227.991C166.098 219.244 167.533 213.314 167.407 209.395C167.183 202.398 167.408 159.653 167.408 159.653" stroke="#F9616A" stroke-width="7" stroke-linecap="round"/>
<path d="M72.2866 69.8366C78.7863 30.3372 126.303 14.3375 156.295 51.8373C200.802 4.33728 243.295 49.8374 240.294 69.8366C274.794 78.8372 289.795 127.337 257.295 151.336C296.294 175.837 274.794 232.837 240.294 232.837C233.294 272.337 177.303 276.837 156.295 246.337C136.387 277.022 85.7866 278.337 72.2866 232.837C36.7866 232.837 20.7866 177.837 55.2866 151.336C38.3625 142.728 17.2943 87.8372 72.2866 69.8366Z" stroke="#E0BC71" stroke-width="10"/>
<path d="M52.2947 52.3378C66.7932 6.33762 119.295 -10.6622 155.982 21.8379C195.886 -16.9773 256.272 19.0229 259.886 52.3378C297.386 60.0227 315.887 117.84 286.387 152.34C319.387 189.34 303.387 247.84 255.387 255.27C232.887 300.34 191.886 302.023 155.982 279.023C120.886 314.023 57.8858 293.523 47.8858 255.953C2.38428 255.953 -8.70532 177.838 23.2947 152.34C5.29468 138.338 -4.7067 70.8376 52.2947 52.3378Z" stroke="#3B6C46" stroke-width="10"/>
</svg>
