<svg width="338" height="331" viewBox="0 0 338 331" fill="none" xmlns="http://www.w3.org/2000/svg">
<path d="M57.6313 57.6782C73.4592 7.46027 130.775 -11.0982 170.826 24.3817C214.388 -17.9924 280.311 21.3087 284.256 57.6782C325.195 66.0677 345.392 129.186 313.187 166.85C349.213 207.242 331.746 271.106 279.345 279.217C254.782 328.42 210.021 330.257 170.826 305.148C132.512 343.357 63.735 320.977 52.8181 279.962C3.14459 279.962 -8.96182 194.685 25.9722 166.85C6.32184 151.563 -4.59656 77.8742 57.6313 57.6782Z" fill="white" stroke="white" stroke-width="10.9169"/>
<path d="M168.665 153.724L168.6 159.252L162.407 159.179L158.321 162.255L162.333 165.428L168.525 165.501L168.445 172.231L171.266 175.39L174.162 172.299L174.241 165.569L180.196 165.64L184.52 162.566L180.27 159.391L174.316 159.32L174.381 153.792L171.577 149.191L168.665 153.724Z" fill="#1B3BA4"/>
<path d="M92.9657 118.259C92.075 116.026 89.7539 115.231 87.7302 116.281C83.0859 118.692 86.1591 129.223 91.3701 129.701V129.701C97.8509 130.295 102.241 126.775 103.93 120.49C104.56 118.145 104.494 115.375 102.907 112.323C98.0548 102.991 84.2396 103.298 76.8766 112.429C69.8597 121.131 73.5259 144.9 94.9616 140.648C124.869 133.649 115.66 94.676 90.9657 96.2679C76.7618 97.1835 64.2727 105.863 62.5207 120.856C61.2722 131.539 66.6007 142.666 75.9085 148.057C84.7994 153.206 93.2242 151.765 97.216 152.228C101.801 152.759 158.746 153.051 158.746 153.051" stroke="#F9616A" stroke-width="7.64182" stroke-linecap="round"/>
<path d="M123.442 89.0747C121.324 87.6061 121.001 85.0021 122.556 83.2227C125.974 79.3132 135.563 84.7286 135.249 89.9121V89.9121C134.831 96.8204 129.942 100.789 123.023 100.614C120.699 100.555 118.143 99.761 115.593 97.6048C107.157 90.4706 110.097 76.6876 120.659 71.5201C130.724 66.5954 153.867 76.0463 145.52 96.5151C132.802 124.814 95.4635 106.111 101.764 81.7268C105.492 67.301 117.113 56.6902 133.174 59.3588C143.311 61.0432 151.948 68.1998 156.826 77.2442C161.761 86.3934 160.211 92.2588 160.348 96.5151C160.593 104.153 160.348 151.907 160.348 151.907" stroke="#F9616A" stroke-width="7.64182" stroke-linecap="round"/>
<path d="M248.396 118.248C249.287 116.015 251.608 115.22 253.632 116.27C258.276 118.682 255.203 129.212 249.992 129.69V129.69C243.511 130.285 239.121 126.765 237.432 120.48C236.802 118.134 236.867 115.364 238.454 112.312C243.307 102.98 257.122 103.287 264.485 112.418C271.502 121.12 267.836 144.889 246.4 140.638C216.493 133.638 225.701 94.6652 250.396 96.2571C264.6 97.1727 277.089 105.852 278.841 120.845C280.09 131.528 274.761 142.655 265.453 148.046C256.562 153.195 248.138 151.755 244.146 152.217C239.56 152.748 182.615 153.04 182.615 153.04" stroke="#F9616A" stroke-width="7.64182" stroke-linecap="round"/>
<path d="M217.92 89.064C220.038 87.5954 220.361 84.9914 218.806 83.212C215.387 79.3026 205.799 84.7179 206.113 89.9014V89.9014C206.531 96.8097 211.42 100.779 218.339 100.604C220.663 100.545 223.219 99.7503 225.768 97.5941C234.205 90.46 231.265 76.677 220.703 71.5094C210.638 66.5847 187.494 76.0356 195.842 96.5044C208.56 124.804 245.898 106.1 239.598 81.7161C235.87 67.2904 224.249 56.6796 208.188 59.3481C198.051 61.0325 189.405 68.2008 184.615 77.2924C179.584 86.8412 181.151 93.3153 181.014 97.5942C180.768 105.232 181.014 151.897 181.014 151.897" stroke="#F9616A" stroke-width="7.64182" stroke-linecap="round"/>
<path d="M91.975 208.481C91.0843 210.715 88.7632 211.51 86.7395 210.459C82.0952 208.048 85.1684 197.518 90.3794 197.04V197.04C96.8602 196.445 101.25 199.965 102.939 206.25C103.569 208.596 103.504 211.365 101.917 214.418C97.064 223.75 83.2489 223.443 75.8859 214.311C68.869 205.609 72.5352 181.84 93.9709 186.092C123.879 193.091 114.67 232.064 89.9749 230.472C75.771 229.557 63.2819 220.877 61.5299 205.885C60.2814 195.201 65.6099 184.074 74.9178 178.684C83.8087 173.534 92.2335 174.975 96.2253 174.512C100.811 173.981 157.756 173.689 157.756 173.689" stroke="#F9616A" stroke-width="7.64182" stroke-linecap="round"/>
<path d="M122.451 237.666C120.333 239.134 120.01 241.738 121.566 243.518C124.984 247.427 134.572 242.012 134.259 236.828V236.828C133.841 229.92 128.951 225.951 122.032 226.126C119.708 226.185 117.152 226.979 114.603 229.135C106.167 236.27 109.106 250.053 119.668 255.22C129.733 260.145 152.877 250.694 144.529 230.225C131.811 201.926 94.4727 220.63 100.774 245.013C104.501 259.439 116.123 270.05 132.183 267.381C142.32 265.697 150.957 258.54 155.835 249.496C160.771 240.347 159.221 234.481 159.357 230.225C159.603 222.587 159.357 174.833 159.357 174.833" stroke="#F9616A" stroke-width="7.64182" stroke-linecap="round"/>
<path d="M250.681 208.481C251.571 210.715 253.893 211.51 255.916 210.459C260.561 208.048 257.487 197.518 252.276 197.04V197.04C245.796 196.445 241.406 199.965 239.717 206.25C239.086 208.596 239.152 211.365 240.739 214.418C245.592 223.75 259.407 223.443 266.77 214.311C273.787 205.609 270.121 181.84 248.685 186.092C218.777 193.091 227.986 232.064 252.681 230.472C266.885 229.557 279.374 220.877 281.126 205.885C282.374 195.201 277.046 184.074 267.738 178.684C258.847 173.534 250.422 174.975 246.43 174.512C241.845 173.981 184.9 173.689 184.9 173.689" stroke="#F9616A" stroke-width="7.64182" stroke-linecap="round"/>
<path d="M220.205 237.665C222.322 239.134 222.646 241.738 221.09 243.517C217.672 247.427 208.084 242.012 208.397 236.828V236.828C208.815 229.92 213.705 225.951 220.623 226.126C222.948 226.185 225.503 226.979 228.053 229.135C236.489 236.27 233.55 250.053 222.988 255.22C212.923 260.145 189.779 250.694 198.127 230.225C210.845 201.926 248.183 220.63 241.882 245.013C238.155 259.439 226.533 270.05 210.473 267.381C200.335 265.697 191.69 258.529 186.9 249.437C181.869 239.888 183.436 233.414 183.298 229.135C183.053 221.497 183.298 174.833 183.298 174.833" stroke="#F9616A" stroke-width="7.64182" stroke-linecap="round"/>
<path d="M79.4558 76.7815C86.5516 33.6604 138.425 16.1937 171.167 57.1319C219.755 5.27661 266.144 54.9486 262.868 76.7815C300.531 86.6074 316.907 139.554 281.427 165.754C324.003 192.501 300.531 254.727 262.868 254.727C255.226 297.849 194.101 302.762 171.167 269.465C149.433 302.964 94.1936 304.399 79.4558 254.727C40.7009 254.727 23.2339 194.684 60.8971 165.754C42.4212 156.357 19.4214 96.4326 79.4558 76.7815Z" stroke="#E0BC71" stroke-width="10.9169"/>
<path d="M57.6308 57.6782C73.4587 7.46027 130.774 -11.0982 170.825 24.3817C214.388 -17.9924 280.31 21.3087 284.256 57.6782C325.194 66.0677 345.392 129.186 313.187 166.85C349.213 207.242 331.746 271.106 279.345 279.217C254.781 328.42 210.021 330.257 170.825 305.148C132.511 343.357 63.7345 320.977 52.8176 279.962C3.1441 279.962 -8.96231 194.685 25.9717 166.85C6.32135 151.563 -4.59705 77.8742 57.6308 57.6782Z" stroke="#3B6C46" stroke-width="10.9169"/>
</svg>
