<svg width="346" height="333" viewBox="0 0 346 333" fill="none" xmlns="http://www.w3.org/2000/svg">
<path d="M72.833 64.4294C72.833 11.1285 135.581 -10.4473 175.395 24.8596C226.196 -18.0521 284.232 24.8597 284.232 64.4295C338.454 64.4295 358.13 140.412 316.269 166.633C363.806 205.432 327.86 279.146 276.779 266.293C276.779 324.508 209.049 345.299 175.395 304.598C135.265 347.19 72.833 320.728 76.617 266.293C22.8874 284.06 -22.8963 201.273 31.3994 166.633C-8.89636 150.24 -0.194 64.4294 72.833 64.4294Z" fill="white" stroke="#F9616A" stroke-width="12.6856"/>
<mask id="path-2-inside-1_337_1013" fill="white">
<rect x="115.797" y="109.269" width="31.5509" height="31.5509" rx="4.22852"/>
</mask>
<rect x="115.797" y="109.269" width="31.5509" height="31.5509" rx="4.22852" stroke="#E0BC71" stroke-width="12.6856" mask="url(#path-2-inside-1_337_1013)"/>
<path d="M129.282 51.6697C117.371 58.4784 124.852 68.0882 127.384 70.6115C132.318 75.5287 146.361 75.9071 153.193 66.8288C166.295 49.4177 153.193 25.9483 129.282 27.772C115.04 28.8583 106.996 36.9178 103.327 43.7262C94.5988 59.9232 103.093 78.593 109.545 85.0234C122.446 96.2736 138.183 94.0958 154.063 93.4291C157.563 93.2822 160.404 96.1182 160.404 99.6212V148.621C160.404 152.124 157.564 154.964 154.061 154.964H109.67C106.167 154.964 103.366 152.136 103.378 148.633C103.442 130.074 101.623 93.2784 66.1328 93.2784C41.0461 93.2784 33.1122 114.359 33.1123 124.703C33.1125 141.696 45.8516 153.011 60.5842 151.909C85.8688 150.018 83.8398 126.944 73.4887 121.27C69.0145 118.818 59.8251 116.759 56.4092 124.703" stroke="#1B3BA4" stroke-width="8.45704" stroke-linecap="round"/>
<mask id="path-4-inside-2_337_1013" fill="white">
<rect width="31.5509" height="31.5509" rx="4.22852" transform="matrix(-1 0 0 1 233.297 109.269)"/>
</mask>
<rect width="31.5509" height="31.5509" rx="4.22852" transform="matrix(-1 0 0 1 233.297 109.269)" stroke="#E0BC71" stroke-width="12.6856" mask="url(#path-4-inside-2_337_1013)"/>
<path d="M220.635 51.6697C232.444 58.4784 225.027 68.0882 222.517 70.6115C217.625 75.5287 203.702 75.9071 196.928 66.8288C183.938 49.4177 196.928 25.9483 220.635 27.772C234.755 28.8583 242.73 36.9178 246.368 43.7262C255.021 59.9232 246.6 78.593 240.203 85.0234C227.427 96.2607 211.846 94.1007 196.119 93.4314C192.619 93.2824 189.779 96.1182 189.779 99.6212V148.621C189.779 152.124 192.618 154.964 196.121 154.964H240.025C243.528 154.964 246.329 152.136 246.317 148.633C246.254 130.074 248.057 93.2784 283.244 93.2784C308.116 93.2784 315.983 114.359 315.982 124.703C315.982 141.696 303.352 153.011 288.745 151.909C263.677 150.018 265.688 126.944 275.951 121.27C280.387 118.818 289.498 116.759 292.885 124.703" stroke="#1B3BA4" stroke-width="8.45704" stroke-linecap="round"/>
<mask id="path-6-inside-3_337_1013" fill="white">
<rect width="31.5509" height="31.5509" rx="4.22852" transform="matrix(1 0 0 -1 115.797 224.594)"/>
</mask>
<rect width="31.5509" height="31.5509" rx="4.22852" transform="matrix(1 0 0 -1 115.797 224.594)" stroke="#E0BC71" stroke-width="12.6856" mask="url(#path-6-inside-3_337_1013)"/>
<path d="M129.282 282.193C117.371 275.384 124.852 265.774 127.384 263.251C132.318 258.334 146.361 257.955 153.193 267.034C166.295 284.445 153.193 307.914 129.282 306.09C115.04 305.004 106.996 296.944 103.327 290.136C94.5988 273.939 103.093 255.269 109.545 248.839C122.446 237.589 138.183 239.767 154.063 240.433C157.563 240.58 160.404 237.744 160.404 234.241V185.241C160.404 181.738 157.564 178.899 154.061 178.899H109.67C106.167 178.899 103.366 181.726 103.378 185.229C103.442 203.788 101.623 240.584 66.1328 240.584C41.0461 240.584 33.1122 219.503 33.1123 209.16C33.1125 192.166 45.8516 180.851 60.5842 181.953C85.8688 183.844 83.8398 206.918 73.4887 212.592C69.0145 215.045 59.8251 217.103 56.4092 209.16" stroke="#1B3BA4" stroke-width="8.45704" stroke-linecap="round"/>
<mask id="path-8-inside-4_337_1013" fill="white">
<rect x="233.297" y="224.594" width="31.5509" height="31.5509" rx="4.22852" transform="rotate(180 233.297 224.594)"/>
</mask>
<rect x="233.297" y="224.594" width="31.5509" height="31.5509" rx="4.22852" transform="rotate(180 233.297 224.594)" stroke="#E0BC71" stroke-width="12.6856" mask="url(#path-8-inside-4_337_1013)"/>
<path d="M220.635 282.193C232.444 275.384 225.027 265.774 222.517 263.251C217.625 258.334 203.702 257.955 196.928 267.034C183.938 284.445 196.928 307.914 220.635 306.09C234.755 305.004 242.73 296.944 246.368 290.136C255.021 273.939 246.6 255.269 240.203 248.839C227.427 237.602 211.846 239.762 196.119 240.431C192.619 240.58 189.779 237.744 189.779 234.241V185.241C189.779 181.738 192.618 178.899 196.121 178.899H240.025C243.528 178.899 246.329 181.726 246.317 185.229C246.254 203.788 248.057 240.584 283.244 240.584C308.116 240.584 315.983 219.503 315.982 209.16C315.982 192.166 303.352 180.851 288.745 181.953C263.677 183.844 265.688 206.918 275.951 212.592C280.387 215.045 289.498 217.103 292.885 209.16" stroke="#1B3BA4" stroke-width="8.45704" stroke-linecap="round"/>
</svg>
