<svg width="316" height="304" viewBox="0 0 316 304" fill="none" xmlns="http://www.w3.org/2000/svg">
<path d="M66.304 58.606C66.304 9.7818 123.782 -9.98196 160.252 22.3596C206.786 -16.948 259.948 22.3597 259.948 58.6061C309.616 58.6061 327.639 128.207 289.294 152.225C332.838 187.766 299.911 255.289 253.121 243.516C253.121 296.841 191.079 315.886 160.252 278.604C123.493 317.618 66.304 293.379 69.7701 243.516C20.5532 259.79 -21.3853 183.957 28.3503 152.225C-8.56113 137.21 -0.58963 58.606 66.304 58.606Z" fill="white" stroke="#F9616A" stroke-width="11.6201"/>
<mask id="path-2-inside-1_337_1013" fill="white">
<rect x="105.659" y="99.6792" width="28.901" height="28.901" rx="3.87337"/>
</mask>
<rect x="105.659" y="99.6792" width="28.901" height="28.901" rx="3.87337" stroke="#E0BC71" stroke-width="11.6201" mask="url(#path-2-inside-1_337_1013)"/>
<path d="M118.011 46.9178C107.101 53.1547 113.954 61.9573 116.273 64.2687C120.792 68.773 133.656 69.1195 139.914 60.8037C151.916 44.855 139.914 23.3567 118.011 25.0273C104.965 26.0223 97.5975 33.405 94.2367 39.6415C86.2413 54.4782 94.0221 71.5799 99.9324 77.4702C111.75 87.7755 126.165 85.7806 140.712 85.1699C143.918 85.0353 146.52 87.6332 146.52 90.842V135.726C146.52 138.935 143.918 141.536 140.71 141.536H100.047C96.8379 141.536 94.2721 138.946 94.2832 135.738C94.3419 118.737 92.6757 85.0319 60.1661 85.0319C37.1864 85.0319 29.9188 104.342 29.9189 113.817C29.9191 129.383 41.5883 139.748 55.0835 138.738C78.2445 137.006 76.3859 115.87 66.9042 110.673C62.8058 108.426 54.3882 106.541 51.2592 113.817" stroke="#1B3BA4" stroke-width="7.74675" stroke-linecap="round"/>
<mask id="path-4-inside-2_337_1013" fill="white">
<rect width="28.901" height="28.901" rx="3.87337" transform="matrix(-1 0 0 1 213.291 99.6792)"/>
</mask>
<rect width="28.901" height="28.901" rx="3.87337" transform="matrix(-1 0 0 1 213.291 99.6792)" stroke="#E0BC71" stroke-width="11.6201" mask="url(#path-4-inside-2_337_1013)"/>
<path d="M201.692 46.9178C212.509 53.1547 205.715 61.9573 203.415 64.2687C198.934 68.773 186.181 69.1195 179.976 60.8037C168.077 44.855 179.976 23.3567 201.692 25.0273C214.626 26.0223 221.931 33.405 225.263 39.6415C233.19 54.4782 225.476 71.5799 219.616 77.4702C207.913 87.7637 193.64 85.7852 179.235 85.172C176.029 85.0356 173.427 87.6332 173.427 90.842V135.726C173.427 138.935 176.028 141.536 179.237 141.536H219.453C222.662 141.536 225.228 138.946 225.217 135.738C225.159 118.737 226.811 85.0319 259.042 85.0319C281.826 85.0319 289.031 104.342 289.031 113.817C289.031 129.383 277.461 139.748 264.081 138.738C241.118 137.006 242.961 115.87 252.362 110.673C256.425 108.426 264.771 106.541 267.873 113.817" stroke="#1B3BA4" stroke-width="7.74675" stroke-linecap="round"/>
<mask id="path-6-inside-3_337_1013" fill="white">
<rect width="28.901" height="28.901" rx="3.87337" transform="matrix(1 0 0 -1 105.659 205.318)"/>
</mask>
<rect width="28.901" height="28.901" rx="3.87337" transform="matrix(1 0 0 -1 105.659 205.318)" stroke="#E0BC71" stroke-width="11.6201" mask="url(#path-6-inside-3_337_1013)"/>
<path d="M118.011 258.08C107.101 251.843 113.954 243.04 116.273 240.729C120.792 236.225 133.656 235.878 139.914 244.194C151.916 260.143 139.914 281.641 118.011 279.97C104.965 278.975 97.5975 271.593 94.2367 265.356C86.2413 250.519 94.0221 233.418 99.9324 227.527C111.75 217.222 126.165 219.217 140.712 219.828C143.918 219.962 146.52 217.364 146.52 214.156V169.271C146.52 166.063 143.918 163.461 140.71 163.461H100.047C96.8379 163.461 94.2721 166.051 94.2832 169.26C94.3419 186.26 92.6757 219.966 60.1661 219.966C37.1864 219.966 29.9188 200.655 29.9189 191.181C29.9191 175.615 41.5883 165.25 55.0835 166.259C78.2445 167.992 76.3859 189.128 66.9042 194.325C62.8058 196.571 54.3882 198.457 51.2592 191.181" stroke="#1B3BA4" stroke-width="7.74675" stroke-linecap="round"/>
<mask id="path-8-inside-4_337_1013" fill="white">
<rect x="213.291" y="205.318" width="28.901" height="28.901" rx="3.87337" transform="rotate(180 213.291 205.318)"/>
</mask>
<rect x="213.291" y="205.318" width="28.901" height="28.901" rx="3.87337" transform="rotate(180 213.291 205.318)" stroke="#E0BC71" stroke-width="11.6201" mask="url(#path-8-inside-4_337_1013)"/>
<path d="M201.692 258.08C212.509 251.843 205.715 243.04 203.415 240.729C198.934 236.225 186.181 235.878 179.976 244.194C168.077 260.143 179.976 281.641 201.692 279.97C214.626 278.975 221.931 271.593 225.263 265.356C233.19 250.519 225.476 233.418 219.616 227.527C207.913 217.234 193.64 219.212 179.235 219.826C176.029 219.962 173.427 217.364 173.427 214.156V169.271C173.427 166.063 176.028 163.461 179.237 163.461H219.453C222.662 163.461 225.228 166.051 225.217 169.26C225.159 186.26 226.811 219.966 259.042 219.966C281.826 219.966 289.031 200.655 289.031 191.181C289.031 175.615 277.461 165.25 264.081 166.259C241.118 167.992 242.961 189.128 252.362 194.325C256.425 196.571 264.771 198.457 267.873 191.181" stroke="#1B3BA4" stroke-width="7.74675" stroke-linecap="round"/>
</svg>
