<svg width="346" height="333" viewBox="0 0 346 333" fill="none" xmlns="http://www.w3.org/2000/svg">
<path d="M72.8333 64.4294C72.8333 11.1285 135.581 -10.4473 175.395 24.8596C226.196 -18.0521 284.232 24.8597 284.232 64.4295C338.454 64.4295 358.13 140.412 316.27 166.633C363.806 205.432 327.86 279.146 276.779 266.293C276.779 324.508 209.049 345.299 175.395 304.598C135.266 347.19 72.8333 320.728 76.6172 266.293C22.8876 284.06 -22.8961 201.273 31.3997 166.633C-8.89612 150.24 -0.193726 64.4294 72.8333 64.4294Z" fill="white" stroke="#F9616A" stroke-width="12.6856"/>
<path d="M129.281 51.6697C117.37 58.4784 124.852 68.0882 127.384 70.6115C132.318 75.5287 146.361 75.9071 153.192 66.8288C166.295 49.4177 153.192 25.9483 129.281 27.772C115.039 28.8583 106.996 36.9178 103.327 43.7262C94.5986 59.9232 103.093 78.593 109.545 85.0234C122.446 96.2736 138.183 94.0958 154.063 93.4291C157.563 93.2822 160.404 96.1182 160.404 99.6212V148.621C160.404 152.124 157.564 154.964 154.061 154.964H109.67C106.167 154.964 103.366 152.136 103.378 148.633C103.442 130.074 101.623 93.2784 66.1325 93.2784C41.0458 93.2784 33.1119 114.359 33.1121 124.703C33.1123 141.696 45.8514 153.011 60.584 151.909C85.8686 150.018 83.8396 126.944 73.4884 121.27C69.0143 118.818 59.8249 116.759 56.409 124.703" stroke="#1B3BA4" stroke-width="8.45704" stroke-linecap="round"/>
<path d="M220.635 51.6697C232.444 58.4784 225.026 68.0882 222.516 70.6115C217.625 75.5287 203.702 75.9071 196.928 66.8288C183.938 49.4177 196.928 25.9483 220.635 27.772C234.755 28.8583 242.73 36.9178 246.367 43.7262C255.021 59.9232 246.6 78.593 240.202 85.0234C227.427 96.2607 211.845 94.1007 196.119 93.4314C192.619 93.2824 189.778 96.1182 189.778 99.6212V148.621C189.778 152.124 192.618 154.964 196.121 154.964H240.025C243.528 154.964 246.329 152.136 246.317 148.633C246.253 130.074 248.057 93.2784 283.244 93.2784C308.116 93.2784 315.982 114.359 315.982 124.703C315.982 141.696 303.352 153.011 288.745 151.909C263.677 150.018 265.688 126.944 275.951 121.27C280.387 118.818 289.498 116.759 292.884 124.703" stroke="#1B3BA4" stroke-width="8.45704" stroke-linecap="round"/>
<path d="M129.281 282.193C117.37 275.384 124.852 265.774 127.384 263.251C132.318 258.334 146.361 257.955 153.192 267.034C166.295 284.445 153.192 307.914 129.281 306.09C115.039 305.004 106.996 296.944 103.327 290.136C94.5986 273.939 103.093 255.269 109.545 248.839C122.446 237.589 138.183 239.767 154.063 240.433C157.563 240.58 160.404 237.744 160.404 234.241V185.241C160.404 181.738 157.564 178.899 154.061 178.899H109.67C106.167 178.899 103.366 181.726 103.378 185.229C103.442 203.788 101.623 240.584 66.1325 240.584C41.0458 240.584 33.1119 219.503 33.1121 209.16C33.1123 192.166 45.8514 180.851 60.584 181.953C85.8686 183.844 83.8396 206.918 73.4884 212.592C69.0143 215.045 59.8249 217.103 56.409 209.16" stroke="#1B3BA4" stroke-width="8.45704" stroke-linecap="round"/>
<path d="M220.635 282.193C232.444 275.384 225.026 265.774 222.516 263.251C217.625 258.334 203.702 257.955 196.928 267.034C183.938 284.445 196.928 307.914 220.635 306.09C234.755 305.004 242.73 296.944 246.367 290.136C255.021 273.939 246.6 255.269 240.202 248.839C227.427 237.602 211.845 239.762 196.119 240.431C192.619 240.58 189.778 237.744 189.778 234.241V185.241C189.778 181.738 192.618 178.899 196.121 178.899H240.025C243.528 178.899 246.329 181.726 246.317 185.229C246.253 203.788 248.057 240.584 283.244 240.584C308.116 240.584 315.982 219.503 315.982 209.16C315.982 192.166 303.352 180.851 288.745 181.953C263.677 183.844 265.688 206.918 275.951 212.592C280.387 215.045 289.498 217.103 292.884 209.16" stroke="#1B3BA4" stroke-width="8.45704" stroke-linecap="round"/>
<path d="M118.969 113.497C118.969 112.913 119.442 112.44 120.026 112.44H143.12C143.704 112.44 144.177 112.913 144.177 113.497V136.591C144.177 137.175 143.704 137.648 143.12 137.648H120.026C119.442 137.648 118.969 137.175 118.969 136.591V113.497ZM229.068 112.44C229.652 112.44 230.125 112.913 230.125 113.497V136.591C230.125 137.175 229.652 137.648 229.068 137.648H205.974C205.391 137.648 204.917 137.175 204.917 136.591V113.497C204.917 112.913 205.391 112.44 205.974 112.44H229.068ZM230.125 220.365C230.125 220.949 229.652 221.422 229.068 221.422H205.974C205.391 221.422 204.917 220.949 204.917 220.365V197.271C204.917 196.687 205.391 196.214 205.974 196.214H229.068C229.652 196.214 230.125 196.687 230.125 197.271V220.365ZM120.026 221.422C119.442 221.422 118.969 220.949 118.969 220.365V197.271C118.969 196.687 119.442 196.214 120.026 196.214H143.12C143.704 196.214 144.177 196.688 144.177 197.271V220.365C144.177 220.949 143.704 221.422 143.12 221.422H120.026Z" stroke="#E0BC71" stroke-width="6.34278"/>
</svg>
