<svg width="291" height="292" viewBox="0 0 291 292" fill="none" xmlns="http://www.w3.org/2000/svg">
<path d="M154.757 0V21.8765H171.919V43.0694H193.097V58.1095H215.005" stroke="#1B3BA4" stroke-width="8.30432"/>
<path d="M154.757 0V21.8765H171.919V43.0694H193.097V58.1095H215.005" stroke="#1B3BA4" stroke-width="8.30432"/>
<path d="M154.392 33.8398V57.0836H178.126" stroke="#1B3BA4" stroke-width="8.30432"/>
<path d="M139.422 0V21.8765H122.26V43.0694H101.082V58.1095H79.1741" stroke="#1B3BA4" stroke-width="8.30432"/>
<path d="M139.787 33.8398V57.0836H116.053" stroke="#1B3BA4" stroke-width="8.30432"/>
<path d="M154.758 127.841V105.965H171.919V84.7719H193.097V69.7318H215.005" stroke="#1B3BA4" stroke-width="8.30432"/>
<path d="M154.758 165.249V105.965H171.919V84.7717H193.097V69.7316H215.005" stroke="#1B3BA4" stroke-width="8.30432"/>
<path d="M154.392 94.001V70.7572H178.126" stroke="#1B3BA4" stroke-width="8.30432"/>
<path d="M139.421 165.612V105.964H122.26V84.7713H101.082V69.7312H79.1738" stroke="#1B3BA4" stroke-width="8.30432"/>
<path d="M139.787 94.001V70.7572H116.053" stroke="#1B3BA4" stroke-width="8.30432"/>
<path d="M154.757 164.159V186.036H171.919V207.229H193.097V222.269H215.005" stroke="#1B3BA4" stroke-width="8.30432"/>
<path d="M154.757 164.159V186.036H171.919V207.229H193.097V222.269H215.005" stroke="#1B3BA4" stroke-width="8.30432"/>
<path d="M154.392 198V221.243H178.126" stroke="#1B3BA4" stroke-width="8.30432"/>
<path d="M139.422 164.159V186.036H122.26V207.229H101.082V222.269H79.1741" stroke="#1B3BA4" stroke-width="8.30432"/>
<path d="M139.787 198V221.243H116.053" stroke="#1B3BA4" stroke-width="8.30432"/>
<path d="M154.758 292V270.123H171.919V248.931H193.097V233.891H215.005" stroke="#1B3BA4" stroke-width="8.30432"/>
<path d="M154.758 292V270.123H171.919V248.931H193.097V233.891H215.005" stroke="#1B3BA4" stroke-width="8.30432"/>
<path d="M154.392 258.16V234.916H178.126" stroke="#1B3BA4" stroke-width="8.30432"/>
<path d="M139.421 292V270.123H122.26V248.931H101.082V233.891H79.1738" stroke="#1B3BA4" stroke-width="8.30432"/>
<path d="M139.787 258.16V234.916H116.053" stroke="#1B3BA4" stroke-width="8.30432"/>
<path d="M230.3 82.0796V103.956H247.461V125.149H268.639V140.189H290.547" stroke="#1B3BA4" stroke-width="8.30432"/>
<path d="M230.3 82.0796V103.956H247.461V125.149H268.639V140.189H290.547" stroke="#1B3BA4" stroke-width="8.30432"/>
<path d="M229.935 115.919V139.163H253.668" stroke="#1B3BA4" stroke-width="8.30432"/>
<path d="M214.964 82.0796V103.956H197.803V125.149H176.625V140.189H154.717" stroke="#1B3BA4" stroke-width="8.30432"/>
<path d="M215.329 115.919V139.163H191.595" stroke="#1B3BA4" stroke-width="8.30432"/>
<path d="M230.3 209.92V188.044H247.461V166.851H268.639V151.811H290.548" stroke="#1B3BA4" stroke-width="8.30432"/>
<path d="M230.3 209.92V188.044H247.461V166.851H268.639V151.811H290.548" stroke="#1B3BA4" stroke-width="8.30432"/>
<path d="M229.935 176.08V152.836H253.668" stroke="#1B3BA4" stroke-width="8.30432"/>
<path d="M214.964 209.92V188.044H197.802V166.851H176.625V151.811H135.104" stroke="#1B3BA4" stroke-width="8.30432"/>
<path d="M215.329 176.08V152.836H191.595" stroke="#1B3BA4" stroke-width="8.30432"/>
<path d="M75.5833 82.0796V103.956H92.7447V125.149H113.923V140.189H135.831" stroke="#1B3BA4" stroke-width="8.30432"/>
<path d="M75.5833 82.0796V103.956H92.7447V125.149H113.923V140.189H156.532" stroke="#1B3BA4" stroke-width="8.30432"/>
<path d="M75.218 115.919V139.163H98.9519" stroke="#1B3BA4" stroke-width="8.30432"/>
<path d="M60.2476 82.0796V103.956H43.0861V125.149H21.9082V140.189H-8.85129e-06" stroke="#1B3BA4" stroke-width="8.30432"/>
<path d="M60.6128 115.919V139.163H36.8789" stroke="#1B3BA4" stroke-width="8.30432"/>
<path d="M75.5835 209.92V188.044H92.7449V166.851H113.923V151.811H135.831" stroke="#1B3BA4" stroke-width="8.30432"/>
<path d="M75.5835 209.92V188.044H92.7449V166.851H113.923V151.811H135.831" stroke="#1B3BA4" stroke-width="8.30432"/>
<path d="M75.218 176.08V152.836H98.9519" stroke="#1B3BA4" stroke-width="8.30432"/>
<path d="M60.2473 209.92V188.044H43.0859V166.851H21.908V151.811H-0.000252992" stroke="#1B3BA4" stroke-width="8.30432"/>
<path d="M60.6128 176.08V152.836H36.8789" stroke="#1B3BA4" stroke-width="8.30432"/>
</svg>
