<svg width="299" height="282" viewBox="0 0 299 282" fill="none" xmlns="http://www.w3.org/2000/svg">
<path d="M37.3877 248.43L32.7709 253.199L27.4283 248.028L21.3256 247.342L22.2094 253.42L27.552 258.591L21.9316 264.397L21.7879 269.48L26.8632 269.171L32.4836 263.365L37.6207 268.337L43.929 269.222L42.8397 262.946L37.7026 257.973L42.3194 253.204L43.6674 246.877L37.3877 248.43Z" fill="#1B3BA4"/>
<path d="M269.392 247.119L264.775 251.888L259.433 246.717L253.33 246.031L254.214 252.109L259.556 257.28L253.936 263.086L253.792 268.169L258.868 267.86L264.488 262.054L269.625 267.026L275.933 267.911L274.844 261.635L269.707 256.662L274.324 251.893L275.672 245.566L269.392 247.119Z" fill="#1B3BA4"/>
<path d="M269.392 20.3577L264.775 25.1272L259.433 19.9557L253.33 19.2701L254.214 25.3473L259.556 30.5188L253.936 36.3252L253.792 41.4078L258.868 41.0989L264.488 35.2925L269.625 40.2651L275.933 41.1496L274.844 34.8735L269.707 29.9009L274.324 25.1314L275.672 18.8045L269.392 20.3577Z" fill="#1B3BA4"/>
<path d="M37.3877 20.3577L32.7709 25.1272L27.4283 19.9557L21.3256 19.2701L22.2094 25.3473L27.552 30.5188L21.9316 36.3252L21.7879 41.4078L26.8632 41.0989L32.4836 35.2925L37.6207 40.2651L43.929 41.1496L42.8397 34.8735L37.7026 29.9009L42.3194 25.1314L43.6674 18.8045L37.3877 20.3577Z" fill="#1B3BA4"/>
<path d="M144.991 131.462L144.912 138.1L137.477 138.011L132.571 141.705L137.388 145.515L144.823 145.603L144.727 153.683L148.114 157.476L151.591 153.765L151.686 145.684L158.836 145.769L164.027 142.079L158.925 138.266L151.775 138.181L151.854 131.544L148.488 126.02L144.991 131.462Z" fill="#1B3BA4"/>
<path d="M54.223 85.1896C53.1536 82.5082 50.3667 81.5536 47.9369 82.8151C42.3606 85.7101 46.0505 98.3535 52.3072 98.9275V98.9275C60.0885 99.6413 65.359 95.415 67.3871 87.8688C68.144 85.0524 68.0652 81.7267 66.1596 78.0621C60.3333 66.8575 43.7458 67.226 34.9052 78.1896C26.4802 88.638 30.8821 117.177 56.6194 112.072C92.5287 103.668 81.4718 56.8743 51.8216 58.7856C34.7673 59.8849 19.772 70.3065 17.6685 88.3073C16.1694 101.135 22.5672 114.494 33.7429 120.967C44.418 127.15 54.5333 125.42 59.3262 125.975C64.8318 126.613 133.204 126.963 133.204 126.963" stroke="#F9616A" stroke-width="9.17532" stroke-linecap="round"/>
<path d="M90.8142 50.1485C88.2717 48.3852 87.8833 45.2587 89.7512 43.1222C93.8552 38.4283 105.368 44.9303 104.991 51.154V51.154C104.489 59.4486 98.6188 64.2141 90.3117 64.0038C87.5205 63.9331 84.4524 62.9793 81.3911 60.3904C71.262 51.8246 74.7913 35.2758 87.4726 29.0712C99.5579 23.1583 127.346 34.5057 117.323 59.082C102.053 93.0601 57.2215 70.603 64.7867 41.3261C69.2624 24.0055 83.2159 11.2655 102.499 14.4695C114.671 16.4919 125.04 25.0846 130.898 35.944C136.823 46.9292 134.963 53.9717 135.127 59.082C135.421 68.2527 135.127 125.59 135.127 125.59" stroke="#F9616A" stroke-width="9.17532" stroke-linecap="round"/>
<path d="M240.844 85.1764C241.914 82.495 244.701 81.5404 247.13 82.8019C252.707 85.6969 249.017 98.3403 242.76 98.9143V98.9143C234.979 99.6282 229.708 95.4019 227.68 87.8556C226.923 85.0392 227.002 81.7136 228.908 78.0489C234.734 66.8443 251.322 67.2128 260.162 78.1765C268.587 88.6248 264.185 117.163 238.448 112.059C202.539 103.655 213.596 56.8611 243.246 58.7724C260.3 59.8717 275.295 70.2933 277.399 88.2942C278.898 101.122 272.5 114.481 261.324 120.954C250.649 127.137 240.534 125.407 235.741 125.962C230.236 126.6 161.863 126.95 161.863 126.95" stroke="#F9616A" stroke-width="9.17532" stroke-linecap="round"/>
<path d="M204.253 50.1363C206.796 48.373 207.184 45.2465 205.316 43.11C201.212 38.416 189.699 44.9181 190.076 51.1418V51.1418C190.578 59.4364 196.449 64.2019 204.756 63.9916C207.547 63.9209 210.615 62.967 213.676 60.3782C223.805 51.8124 220.276 35.2636 207.595 29.059C195.51 23.1461 167.722 34.4935 177.745 59.0698C193.015 93.0479 237.846 70.5908 230.281 41.3139C225.805 23.9933 211.852 11.2532 192.568 14.4573C180.396 16.4797 170.016 25.0865 164.265 36.0025C158.224 47.4675 160.105 55.2407 159.941 60.3782C159.646 69.549 159.941 125.578 159.941 125.578" stroke="#F9616A" stroke-width="9.17532" stroke-linecap="round"/>
<path d="M54.223 195.897C53.1536 198.578 50.3667 199.533 47.9369 198.271C42.3606 195.376 46.0505 182.733 52.3072 182.159V182.159C60.0885 181.445 65.359 185.671 67.3871 193.218C68.144 196.034 68.0652 199.36 66.1596 203.024C60.3333 214.229 43.7458 213.86 34.9052 202.897C26.4802 192.448 30.8821 163.91 56.6194 169.014C92.5287 177.418 81.4718 224.212 51.8216 222.301C34.7673 221.201 19.772 210.78 17.6685 192.779C16.1694 179.952 22.5672 166.592 33.7429 160.119C44.418 153.937 54.5333 155.666 59.3262 155.111C64.8318 154.473 133.204 154.123 133.204 154.123" stroke="#F9616A" stroke-width="9.17532" stroke-linecap="round"/>
<path d="M90.8142 230.938C88.2717 232.701 87.8833 235.828 89.7512 237.964C93.8552 242.658 105.368 236.156 104.991 229.932V229.932C104.489 221.638 98.6188 216.872 90.3117 217.083C87.5205 217.153 84.4524 218.107 81.3911 220.696C71.262 229.262 74.7913 245.811 87.4726 252.015C99.5579 257.928 127.346 246.581 117.323 222.004C102.053 188.026 57.2215 210.483 64.7867 239.76C69.2624 257.081 83.2159 269.821 102.499 266.617C114.671 264.595 125.04 256.002 130.898 245.142C136.823 234.157 134.963 227.115 135.127 222.004C135.421 212.834 135.127 155.496 135.127 155.496" stroke="#F9616A" stroke-width="9.17532" stroke-linecap="round"/>
<path d="M244.776 195.897C245.846 198.579 248.633 199.533 251.063 198.272C256.639 195.377 252.949 182.733 246.692 182.159V182.159C238.911 181.446 233.64 185.672 231.612 193.218C230.856 196.035 230.934 199.36 232.84 203.025C238.666 214.229 255.254 213.861 264.094 202.897C272.519 192.449 268.117 163.91 242.38 169.015C206.471 177.419 217.528 224.213 247.178 222.301C264.232 221.202 279.227 210.78 281.331 192.78C282.83 179.952 276.432 166.593 265.257 160.12C254.582 153.937 244.466 155.667 239.673 155.112C234.168 154.474 165.796 154.124 165.796 154.124" stroke="#F9616A" stroke-width="9.17532" stroke-linecap="round"/>
<path d="M208.185 230.937C210.728 232.701 211.116 235.827 209.248 237.964C205.144 242.658 193.632 236.156 194.008 229.932V229.932C194.51 221.637 200.381 216.872 208.688 217.082C211.479 217.153 214.547 218.107 217.608 220.696C227.737 229.261 224.208 245.81 211.527 252.015C199.442 257.928 171.654 246.58 181.677 222.004C196.947 188.026 241.778 210.483 234.213 239.76C229.737 257.08 215.784 269.82 196.5 266.616C184.329 264.594 173.948 255.987 168.197 245.071C162.156 233.606 164.038 225.833 163.873 220.695C163.578 211.525 163.873 155.496 163.873 155.496" stroke="#F9616A" stroke-width="9.17532" stroke-linecap="round"/>
</svg>
