<svg width="299" height="281" viewBox="0 0 299 281" fill="none" xmlns="http://www.w3.org/2000/svg">
<path d="M37.3757 248.355L32.7603 253.123L27.4194 247.953L21.3185 247.268L22.202 253.343L27.543 258.513L21.9243 264.317L21.7807 269.398L26.8544 269.09L32.4731 263.285L37.6086 268.256L43.9149 269.14L42.826 262.866L37.6904 257.895L42.3058 253.127L43.6534 246.802L37.3757 248.355Z" fill="#FD5B67"/>
<path d="M269.31 247.044L264.695 251.812L259.354 246.642L253.253 245.957L254.137 252.032L259.478 257.202L253.859 263.007L253.715 268.088L258.789 267.779L264.408 261.975L269.543 266.946L275.849 267.83L274.761 261.556L269.625 256.585L274.24 251.816L275.588 245.492L269.31 247.044Z" fill="#FD5B67"/>
<path d="M269.31 20.3524L264.695 25.1204L259.354 19.9505L253.253 19.2651L254.137 25.3404L259.478 30.5104L253.859 36.315L253.715 41.3961L258.789 41.0872L264.408 35.2826L269.543 40.2537L275.849 41.1379L274.761 34.8637L269.625 29.8926L274.24 25.1246L275.588 18.7997L269.31 20.3524Z" fill="#FD5B67"/>
<path d="M37.3759 20.3524L32.7606 25.1204L27.4196 19.9505L21.3188 19.2651L22.2023 25.3404L27.5432 30.5104L21.9245 36.315L21.7809 41.3961L26.8546 41.0872L32.4733 35.2826L37.6089 40.2537L43.9152 41.1379L42.8262 34.8637L37.6907 29.8926L42.306 25.1246L43.6537 18.7997L37.3759 20.3524Z" fill="#FD5B67"/>
<path d="M144.947 131.423L144.868 138.059L137.435 137.971L132.531 141.663L137.346 145.472L144.779 145.56L144.683 153.638L148.069 157.429L151.544 153.719L151.64 145.641L158.787 145.726L163.977 142.037L158.876 138.225L151.729 138.14L151.808 131.505L148.442 125.983L144.947 131.423Z" fill="#FD5B67"/>
<path d="M54.2056 85.164C53.1364 82.4835 50.3504 81.5291 47.9214 82.7902C42.3468 85.6843 46.0355 98.3239 52.2903 98.8977V98.8977C60.0693 99.6113 65.3382 95.3863 67.3656 87.8424C68.1223 85.0269 68.0435 81.7022 66.1385 78.0387C60.3139 66.8376 43.7315 67.2059 34.8937 78.1662C26.4713 88.6113 30.8718 117.141 56.6012 112.038C92.4994 103.637 81.4459 56.8574 51.8048 58.7681C35.1532 59.8415 20.465 69.8049 17.8301 87.035C15.7522 100.623 22.695 115.091 34.833 121.542C45.0943 126.995 54.6809 125.401 59.3072 125.937C64.811 126.575 133.162 126.925 133.162 126.925" stroke="#3B6C46" stroke-width="9.76547" stroke-linecap="round"/>
<path d="M90.7867 50.1341C88.245 48.3713 87.8567 45.2458 89.7241 43.11C93.8268 38.4174 105.336 44.9175 104.959 51.1393V51.1393C104.458 59.4313 98.5889 64.1953 90.2844 63.9851C87.494 63.9145 84.4269 62.9609 81.3665 60.3728C71.2405 51.8097 74.7688 35.2659 87.4462 29.0633C99.5277 23.1521 127.307 34.4961 117.287 59.0648C102.022 93.0325 57.2043 70.5823 64.7672 41.3144C69.1484 24.3595 82.6142 11.7951 101.272 14.2867C114.288 16.0249 125.493 25.286 131.418 37.0055C136.662 47.3771 134.927 54.1242 135.086 59.0648C135.38 68.2327 135.086 125.552 135.086 125.552" stroke="#3B6C46" stroke-width="9.76547" stroke-linecap="round"/>
<path d="M240.771 85.1508C241.84 82.4703 244.626 81.516 247.055 82.777C252.63 85.6711 248.941 98.3107 242.686 98.8845V98.8845C234.907 99.5982 229.638 95.3731 227.611 87.8292C226.854 85.0137 226.933 81.689 228.838 78.0255C234.663 66.8244 251.245 67.1927 260.083 78.153C268.505 88.5981 264.105 117.128 238.375 112.025C202.477 103.624 213.531 56.8442 243.172 58.7549C259.823 59.8283 274.512 69.7917 277.146 87.0218C279.224 100.609 272.282 115.078 260.144 121.529C249.882 126.982 240.296 125.388 235.669 125.924C230.166 126.562 161.814 126.912 161.814 126.912" stroke="#3B6C46" stroke-width="9.76547" stroke-linecap="round"/>
<path d="M204.191 50.1209C206.732 48.3582 207.121 45.2326 205.253 43.0968C201.15 38.4042 189.641 44.9043 190.018 51.1261V51.1261C190.52 59.4181 196.388 64.1822 204.693 63.9719C207.483 63.9013 210.55 62.9477 213.611 60.3596C223.737 51.7965 220.209 35.2527 207.531 29.0501C195.45 23.139 167.67 34.4829 177.69 59.0517C192.956 93.0193 237.773 70.5691 230.21 41.3012C225.829 24.3463 212.363 11.7819 193.706 14.2735C180.689 16.0117 169.483 25.293 163.666 37.0663C158.292 47.9411 160.051 55.3859 159.892 60.3597C159.597 69.5276 159.892 125.539 159.892 125.539" stroke="#3B6C46" stroke-width="9.76547" stroke-linecap="round"/>
<path d="M54.2065 195.839C53.1374 198.519 50.3514 199.474 47.9223 198.213C42.3478 195.319 46.0365 182.679 52.2913 182.105V182.105C60.0702 181.392 65.3391 185.617 67.3666 193.161C68.1232 195.976 68.0445 199.301 66.1394 202.964C60.3149 214.165 43.7325 213.797 34.8947 202.837C26.4723 192.392 30.8728 163.862 56.6022 168.965C92.5004 177.366 81.4469 224.146 51.8058 222.235C35.1542 221.161 20.466 211.198 17.8311 193.968C15.7532 180.38 22.696 165.912 34.834 159.461C45.0953 154.008 54.6819 155.602 59.3081 155.066C64.812 154.428 133.163 154.078 133.163 154.078" stroke="#3B6C46" stroke-width="9.76547" stroke-linecap="round"/>
<path d="M90.7867 230.868C88.245 232.631 87.8567 235.757 89.7241 237.892C93.8268 242.585 105.336 236.085 104.959 229.863V229.863C104.458 221.571 98.5889 216.807 90.2844 217.017C87.494 217.088 84.4269 218.042 81.3665 220.63C71.2405 229.193 74.7688 245.737 87.4462 251.939C99.5277 257.85 127.307 246.506 117.287 221.938C102.022 187.97 57.2043 210.42 64.7672 239.688C69.1484 256.643 82.6142 269.207 101.272 266.716C114.288 264.978 125.493 255.716 131.418 243.997C136.662 233.625 134.927 226.878 135.086 221.938C135.38 212.77 135.086 155.45 135.086 155.45" stroke="#3B6C46" stroke-width="9.76547" stroke-linecap="round"/>
<path d="M244.702 195.839C245.771 198.52 248.557 199.474 250.986 198.213C256.561 195.319 252.872 182.68 246.617 182.106V182.106C238.838 181.392 233.57 185.617 231.542 193.161C230.785 195.977 230.864 199.301 232.769 202.965C238.594 214.166 255.176 213.798 264.014 202.837C272.436 192.392 268.036 163.862 242.307 168.965C206.408 177.366 217.462 224.146 247.103 222.235C263.755 221.162 278.443 211.199 281.078 193.968C283.155 180.381 276.213 165.912 264.075 159.462C253.813 154.009 244.227 155.602 239.601 155.066C234.097 154.429 165.746 154.079 165.746 154.079" stroke="#3B6C46" stroke-width="9.76547" stroke-linecap="round"/>
<path d="M208.122 230.869C210.664 232.632 211.052 235.758 209.185 237.893C205.082 242.586 193.573 236.086 193.949 229.864V229.864C194.451 221.572 200.32 216.808 208.624 217.018C211.415 217.089 214.482 218.043 217.542 220.631C227.668 229.194 224.14 245.737 211.463 251.94C199.381 257.851 171.602 246.507 181.622 221.939C196.887 187.971 241.704 210.421 234.141 239.689C229.76 256.644 216.294 269.208 197.637 266.717C184.621 264.979 173.414 255.697 167.597 243.924C162.224 233.049 163.983 225.604 163.823 220.631C163.529 211.463 163.823 155.451 163.823 155.451" stroke="#3B6C46" stroke-width="9.76547" stroke-linecap="round"/>
</svg>
