<svg width="299" height="118" viewBox="0 0 299 118" fill="none" xmlns="http://www.w3.org/2000/svg">
<path d="M126.359 105.731H141.951V91.2397" stroke="#1B3BA4" stroke-width="6.63791"/>
<path d="M168.182 105.914H152.59V91.4229" stroke="#1B3BA4" stroke-width="6.63791"/>
<path d="M0 111.797H299" stroke="#1B3BA4" stroke-width="11.6163"/>
<path d="M101.228 106.464H112.16V91.0559H126.138V77.8485H140.117V63.5405" stroke="#1B3BA4" stroke-width="6.63791"/>
<path d="M195.147 106.464H184.216V91.0559H170.237V77.8485H156.259V63.5405" stroke="#1B3BA4" stroke-width="6.63791"/>
<path d="M50.2324 111.796C24.5516 64.6532 64.7243 45.3927 79.0321 45.3927C81.6001 2.10198 126.878 -4.36938 148.523 20.3944C178.83 -12.9764 219.911 19.5937 214.958 45.3925C267.787 45.3925 260.999 111.796 241.922 111.796" stroke="#1B3BA4" stroke-width="11.6163"/>
<path d="M71.2892 111.122C47.4369 91.5488 59.6091 66.4175 73.7598 63.2012C88.6085 59.8263 102.782 71.3006 100.083 85.3206C99.626 87.6918 98.8207 89.6356 97.7978 91.2288C91.4464 101.121 71.1451 98.2376 71.264 86.4823C71.2651 86.3804 71.2675 86.2778 71.2714 86.1744C71.4099 82.4606 73.6301 78.9009 76.9703 77.2718C82.3627 74.6417 86.5732 78.5577 85.2338 83.112" stroke="#1B3BA4" stroke-width="6.63791" stroke-linecap="round"/>
<path d="M147.328 46.1109C127.418 3.46827 98.9078 24.3142 96.169 38.565C93.2952 53.5188 105.239 67.299 119.161 64.1294C121.418 63.6156 123.272 62.7947 124.794 61.7798C134.702 55.1728 133.585 39.5455 122.948 34.1882V34.1882C118.385 31.8898 109.891 36.0485 109.123 41.1C108.32 46.3879 112.415 50.7004 116.454 49.3633" stroke="#1B3BA4" stroke-width="6.63791" stroke-linecap="round"/>
<path d="M147.694 46.7279C167.605 4.08523 196.699 24.9308 199.438 39.1817C202.312 54.1355 190.368 67.9157 176.446 64.7461C174.189 64.2322 172.335 63.4113 170.813 62.3965C160.905 55.7895 162.022 40.1622 172.659 34.8049V34.8049C177.222 32.5065 185.717 36.6652 186.484 41.7167C187.287 47.0046 183.192 51.3171 179.153 49.9799" stroke="#1B3BA4" stroke-width="6.63791" stroke-linecap="round"/>
<path d="M226.063 109.772C249.915 90.1987 237.743 65.0674 223.592 61.8511C208.744 58.4762 194.57 69.9505 197.269 83.9705C197.726 86.3417 198.531 88.2855 199.554 89.8787C205.906 99.7712 226.207 96.8875 226.088 85.1322C226.087 85.0303 226.085 84.9277 226.081 84.8243C225.942 81.1105 223.722 77.5508 220.382 75.9217C214.989 73.2916 210.779 77.2076 212.118 81.762" stroke="#1B3BA4" stroke-width="6.63791" stroke-linecap="round"/>
</svg>
