<svg width="268" height="317" viewBox="0 0 268 317" fill="none" xmlns="http://www.w3.org/2000/svg">
<path d="M120.722 0V23.7092H139.321V46.6774H162.273V62.9775H186.016" stroke="#F9616A" stroke-width="9"/>
<path d="M120.722 0V23.7092H139.321V46.6774H162.273V62.9775H186.016" stroke="#F9616A" stroke-width="9"/>
<path d="M120.326 36.675V61.866H146.048" stroke="#F9616A" stroke-width="9"/>
<path d="M104.102 0V23.7092H85.5025V46.6774H62.5504V62.9775H38.8069" stroke="#F9616A" stroke-width="9"/>
<path d="M104.497 36.675V61.866H78.7749" stroke="#F9616A" stroke-width="9"/>
<path d="M120.722 138.551V114.841H139.321V91.8731H162.273V75.5731H186.016" stroke="#F9616A" stroke-width="9"/>
<path d="M120.722 179.092V114.841H139.321V91.8731H162.273V75.5731H186.016" stroke="#F9616A" stroke-width="9"/>
<path d="M120.326 101.876V76.6846H146.048" stroke="#F9616A" stroke-width="9"/>
<path d="M104.101 179.486V114.841H85.502V91.8731H62.5499V75.573H38.8064" stroke="#F9616A" stroke-width="9"/>
<path d="M104.497 101.876V76.6846H78.7749" stroke="#F9616A" stroke-width="9"/>
<path d="M120.722 177.911V201.621H139.321V224.589H162.273V240.889H186.016" stroke="#F9616A" stroke-width="9"/>
<path d="M120.722 177.911V201.621H139.321V224.589H162.273V240.889H186.016" stroke="#F9616A" stroke-width="9"/>
<path d="M120.326 214.586V239.777H146.048" stroke="#F9616A" stroke-width="9"/>
<path d="M104.102 177.911V201.621H85.5025V224.589H62.5504V240.889H38.8069" stroke="#F9616A" stroke-width="9"/>
<path d="M104.497 214.586V239.777H78.7749" stroke="#F9616A" stroke-width="9"/>
<path d="M120.722 316.462V292.753H139.321V269.784H162.273V253.484H186.016" stroke="#F9616A" stroke-width="9"/>
<path d="M120.722 316.462V292.753H139.321V269.784H162.273V253.484H186.016" stroke="#F9616A" stroke-width="9"/>
<path d="M120.326 279.787V254.596H146.048" stroke="#F9616A" stroke-width="9"/>
<path d="M104.101 316.462V292.753H85.502V269.784H62.5499V253.484H38.8064" stroke="#F9616A" stroke-width="9"/>
<path d="M104.497 279.787V254.596H78.7749" stroke="#F9616A" stroke-width="9"/>
<path d="M202.593 88.9558V112.665H221.192V135.633H244.144V151.933H267.887" stroke="#F9616A" stroke-width="9"/>
<path d="M202.593 88.9558V112.665H221.192V135.633H244.144V151.933H267.887" stroke="#F9616A" stroke-width="9"/>
<path d="M202.197 125.631V150.822H227.919" stroke="#F9616A" stroke-width="9"/>
<path d="M185.972 88.9558V112.665H167.373V135.633H144.421V151.933H120.677" stroke="#F9616A" stroke-width="9"/>
<path d="M186.368 125.631V150.822H160.646" stroke="#F9616A" stroke-width="9"/>
<path d="M202.593 227.506V203.797H221.192V180.829H244.144V164.529H267.888" stroke="#F9616A" stroke-width="9"/>
<path d="M202.593 227.506V203.797H221.192V180.829H244.144V164.529H267.888" stroke="#F9616A" stroke-width="9"/>
<path d="M202.197 190.831V165.64H227.919" stroke="#F9616A" stroke-width="9"/>
<path d="M185.972 227.506V203.797H167.373V180.829H144.421V164.529H99.4227" stroke="#F9616A" stroke-width="9"/>
<path d="M186.368 190.831V165.64H160.646" stroke="#F9616A" stroke-width="9"/>
<path d="M34.915 88.9558V112.665H53.5141V135.633H76.4662V151.933H100.21" stroke="#F9616A" stroke-width="9"/>
<path d="M34.915 88.9558V112.665H53.5141V135.633H76.4662V151.933H122.645" stroke="#F9616A" stroke-width="9"/>
<path d="M34.5195 125.631V150.822H60.2417" stroke="#F9616A" stroke-width="9"/>
<path d="M18.2944 88.9558V112.665H-0.304656V135.633H-23.2567V151.933H-47.0002" stroke="#F9616A" stroke-width="9"/>
<path d="M18.6904 125.631V150.822H-7.03172" stroke="#F9616A" stroke-width="9"/>
<path d="M34.9155 227.506V203.797H53.5146V180.829H76.4667V164.529H100.21" stroke="#F9616A" stroke-width="9"/>
<path d="M34.9155 227.506V203.797H53.5146V180.829H76.4667V164.529H100.21" stroke="#F9616A" stroke-width="9"/>
<path d="M34.5195 190.831V165.64H60.2417" stroke="#F9616A" stroke-width="9"/>
<path d="M18.2944 227.506V203.797H-0.304656V180.829H-23.2567V164.529H-47.0002" stroke="#F9616A" stroke-width="9"/>
<path d="M18.6904 190.831V165.64H-7.03172" stroke="#F9616A" stroke-width="9"/>
</svg>
