<svg width="233" height="317" viewBox="0 0 233 317" fill="none" xmlns="http://www.w3.org/2000/svg">
<path d="M167.722 0V23.7092H186.321V46.6774H209.273V62.9775H233.016" stroke="#F9616A" stroke-width="9"/>
<path d="M167.722 0V23.7092H186.321V46.6774H209.273V62.9775H233.016" stroke="#F9616A" stroke-width="9"/>
<path d="M167.326 36.675V61.866H193.048" stroke="#F9616A" stroke-width="9"/>
<path d="M151.102 0V23.7092H132.502V46.6774H109.55V62.9775H85.8069" stroke="#F9616A" stroke-width="9"/>
<path d="M151.497 36.675V61.866H125.775" stroke="#F9616A" stroke-width="9"/>
<path d="M167.722 138.551V114.841H186.321V91.8731H209.273V75.5731H233.016" stroke="#F9616A" stroke-width="9"/>
<path d="M167.722 179.092V114.841H186.321V91.8731H209.273V75.5731H233.016" stroke="#F9616A" stroke-width="9"/>
<path d="M167.326 101.876V76.6846H193.048" stroke="#F9616A" stroke-width="9"/>
<path d="M151.101 179.486V114.841H132.502V91.8731H109.55V75.573H85.8064" stroke="#F9616A" stroke-width="9"/>
<path d="M151.497 101.876V76.6846H125.775" stroke="#F9616A" stroke-width="9"/>
<path d="M167.722 177.911V201.621H186.321V224.589H209.273V240.889H233.016" stroke="#F9616A" stroke-width="9"/>
<path d="M167.722 177.911V201.621H186.321V224.589H209.273V240.889H233.016" stroke="#F9616A" stroke-width="9"/>
<path d="M167.326 214.586V239.777H193.048" stroke="#F9616A" stroke-width="9"/>
<path d="M151.102 177.911V201.621H132.502V224.589H109.55V240.889H85.8069" stroke="#F9616A" stroke-width="9"/>
<path d="M151.497 214.586V239.777H125.775" stroke="#F9616A" stroke-width="9"/>
<path d="M167.722 316.462V292.753H186.321V269.784H209.273V253.484H233.016" stroke="#F9616A" stroke-width="9"/>
<path d="M167.722 316.462V292.753H186.321V269.784H209.273V253.484H233.016" stroke="#F9616A" stroke-width="9"/>
<path d="M167.326 279.787V254.596H193.048" stroke="#F9616A" stroke-width="9"/>
<path d="M151.101 316.462V292.753H132.502V269.784H109.55V253.484H85.8064" stroke="#F9616A" stroke-width="9"/>
<path d="M151.497 279.787V254.596H125.775" stroke="#F9616A" stroke-width="9"/>
<path d="M232.972 88.9558V112.665H214.373V135.633H191.421V151.933H167.677" stroke="#F9616A" stroke-width="9"/>
<path d="M233.368 125.631V150.822H207.646" stroke="#F9616A" stroke-width="9"/>
<path d="M232.972 227.506V203.797H214.373V180.829H191.421V164.529H146.423" stroke="#F9616A" stroke-width="9"/>
<path d="M233.368 190.831V165.64H207.646" stroke="#F9616A" stroke-width="9"/>
<path d="M81.915 88.9558V112.665H100.514V135.633H123.466V151.933H147.21" stroke="#F9616A" stroke-width="9"/>
<path d="M81.915 88.9558V112.665H100.514V135.633H123.466V151.933H169.645" stroke="#F9616A" stroke-width="9"/>
<path d="M81.5195 125.631V150.822H107.242" stroke="#F9616A" stroke-width="9"/>
<path d="M65.2944 88.9558V112.665H46.6953V135.633H23.7433V151.933H-0.000242531" stroke="#F9616A" stroke-width="9"/>
<path d="M65.6904 125.631V150.822H39.9683" stroke="#F9616A" stroke-width="9"/>
<path d="M81.9155 227.506V203.797H100.515V180.829H123.467V164.529H147.21" stroke="#F9616A" stroke-width="9"/>
<path d="M81.9155 227.506V203.797H100.515V180.829H123.467V164.529H147.21" stroke="#F9616A" stroke-width="9"/>
<path d="M81.5195 190.831V165.64H107.242" stroke="#F9616A" stroke-width="9"/>
<path d="M65.2944 227.506V203.797H46.6953V180.829H23.7433V164.529H-0.000242531" stroke="#F9616A" stroke-width="9"/>
<path d="M65.6904 190.831V165.64H39.9683" stroke="#F9616A" stroke-width="9"/>
</svg>
