<svg width="529" height="501" viewBox="0 0 529 501" fill="none" xmlns="http://www.w3.org/2000/svg">
<mask id="path-1-inside-1_1234_975" fill="white">
<path fill-rule="evenodd" clip-rule="evenodd" d="M492.971 248C507.897 231.646 517 209.886 517 186C517 135.19 475.81 94 425 94L424.866 94.0001C422.27 45.5149 382.133 7 333 7C310.927 7 290.67 14.7733 274.816 27.7316C258.274 11.7981 235.781 2 211 2C160.19 2 119 43.1898 119 94C68.1898 94 27 135.19 27 186C27 207.323 34.2543 226.952 46.4296 242.554C28.3275 259.355 17 283.355 17 310C17 360.81 58.1898 402 109 402C112.484 402 115.923 401.806 119.307 401.429C119.104 403.926 119 406.451 119 409C119 459.81 160.19 501 211 501C234.402 501 255.764 492.262 272 477.871C288.236 492.262 309.598 501 333 501C383.81 501 425 459.81 425 409C425 406.645 424.911 404.31 424.738 402C424.825 402 424.913 402 425 402C475.81 402 517 360.81 517 310C517 286.114 507.897 264.354 492.971 248Z"/>
</mask>
<path fill-rule="evenodd" clip-rule="evenodd" d="M492.971 248C507.897 231.646 517 209.886 517 186C517 135.19 475.81 94 425 94L424.866 94.0001C422.27 45.5149 382.133 7 333 7C310.927 7 290.67 14.7733 274.816 27.7316C258.274 11.7981 235.781 2 211 2C160.19 2 119 43.1898 119 94C68.1898 94 27 135.19 27 186C27 207.323 34.2543 226.952 46.4296 242.554C28.3275 259.355 17 283.355 17 310C17 360.81 58.1898 402 109 402C112.484 402 115.923 401.806 119.307 401.429C119.104 403.926 119 406.451 119 409C119 459.81 160.19 501 211 501C234.402 501 255.764 492.262 272 477.871C288.236 492.262 309.598 501 333 501C383.81 501 425 459.81 425 409C425 406.645 424.911 404.31 424.738 402C424.825 402 424.913 402 425 402C475.81 402 517 360.81 517 310C517 286.114 507.897 264.354 492.971 248Z" fill="black"/>
<path d="M492.971 248L483.458 239.317L475.534 248L483.458 256.683L492.971 248ZM425 94L425 81.12L424.99 81.12L425 94ZM424.866 94.0001L412.005 94.6889L412.658 106.889L424.876 106.88L424.866 94.0001ZM274.816 27.7316L265.881 37.0082L274.115 44.9398L282.968 37.7041L274.816 27.7316ZM119 94V106.88H131.88V94H119ZM46.4296 242.554L55.1916 251.994L63.8578 243.951L56.5836 234.629L46.4296 242.554ZM119.307 401.429L132.145 402.475L133.413 386.897L117.88 388.628L119.307 401.429ZM272 477.871L280.543 468.232L272 460.659L263.457 468.232L272 477.871ZM424.738 402L424.774 389.12L410.849 389.081L411.894 402.966L424.738 402ZM502.485 256.683C519.492 238.049 529.88 213.223 529.88 186H504.12C504.12 206.549 496.303 225.243 483.458 239.317L502.485 256.683ZM529.88 186C529.88 128.076 482.924 81.12 425 81.12V106.88C468.697 106.88 504.12 142.303 504.12 186H529.88ZM424.99 81.12L424.857 81.1201L424.876 106.88L425.01 106.88L424.99 81.12ZM437.728 93.3113C434.767 38.0271 389.015 -5.88 333 -5.88V19.88C375.25 19.88 409.772 53.0028 412.005 94.6889L437.728 93.3113ZM333 -5.88C307.849 -5.88 284.735 2.98946 266.665 17.7592L282.968 37.7041C296.605 26.5571 314.006 19.88 333 19.88V-5.88ZM283.752 18.4551C264.906 0.302774 239.246 -10.88 211 -10.88V14.88C232.317 14.88 251.643 23.2934 265.881 37.0082L283.752 18.4551ZM211 -10.88C153.076 -10.88 106.12 36.0764 106.12 94H131.88C131.88 50.3032 167.303 14.88 211 14.88V-10.88ZM119 81.12C61.0764 81.12 14.12 128.076 14.12 186H39.88C39.88 142.303 75.3032 106.88 119 106.88V81.12ZM14.12 186C14.12 210.295 22.3966 232.693 36.2757 250.478L56.5836 234.629C46.1121 221.211 39.88 204.352 39.88 186H14.12ZM37.6676 233.113C17.0497 252.249 4.12 279.625 4.12 310H29.88C29.88 287.085 39.6053 266.46 55.1916 251.994L37.6676 233.113ZM4.12 310C4.12 367.924 51.0764 414.88 109 414.88V389.12C65.3032 389.12 29.88 353.697 29.88 310H4.12ZM109 414.88C112.962 414.88 116.878 414.66 120.734 414.23L117.88 388.628C114.969 388.953 112.007 389.12 109 389.12V414.88ZM106.47 400.383C106.238 403.228 106.12 406.101 106.12 409H131.88C131.88 406.8 131.969 404.624 132.145 402.475L106.47 400.383ZM106.12 409C106.12 466.924 153.076 513.88 211 513.88V488.12C167.303 488.12 131.88 452.697 131.88 409H106.12ZM211 513.88C237.67 513.88 262.042 503.908 280.543 487.51L263.457 468.232C249.485 480.616 231.135 488.12 211 488.12V513.88ZM263.457 487.51C281.958 503.908 306.33 513.88 333 513.88V488.12C312.865 488.12 294.515 480.616 280.543 468.232L263.457 487.51ZM333 513.88C390.924 513.88 437.88 466.924 437.88 409H412.12C412.12 452.697 376.697 488.12 333 488.12V513.88ZM437.88 409C437.88 406.322 437.779 403.665 437.581 401.033L411.894 402.966C412.044 404.955 412.12 406.968 412.12 409H437.88ZM425 389.12C424.924 389.12 424.849 389.12 424.774 389.12L424.702 414.88C424.801 414.88 424.901 414.88 425 414.88V389.12ZM504.12 310C504.12 353.697 468.697 389.12 425 389.12V414.88C482.924 414.88 529.88 367.924 529.88 310H504.12ZM483.458 256.683C496.303 270.757 504.12 289.451 504.12 310H529.88C529.88 282.777 519.492 257.951 502.485 239.317L483.458 256.683Z" fill="black" mask="url(#path-1-inside-1_1234_975)"/>
<path d="M273.525 88.1549C227.285 -10.877 161.075 37.5348 154.714 70.6305C148.04 105.359 175.779 137.361 208.11 130.001C213.352 128.807 217.657 126.901 221.191 124.544C244.203 109.2 241.608 72.9075 216.906 60.466V60.466C206.308 55.1282 186.581 64.7862 184.799 76.5177C182.933 88.7982 192.443 98.8135 201.824 95.7081" stroke="white" stroke-width="15.4157" stroke-linecap="round"/>
<path d="M273.5 87.5C319.74 -11.5319 380.34 41.5096 386.701 74.6053C393.375 109.333 365.636 141.336 333.305 133.975C328.064 132.782 323.759 130.875 320.224 128.519C297.212 113.175 299.807 76.8823 324.509 64.4407V64.4407C335.107 59.1029 354.834 68.761 356.616 80.4924C358.482 92.7729 348.973 102.788 339.591 99.6828" stroke="white" stroke-width="15.4157" stroke-linecap="round"/>
<path d="M272.525 419.391C226.285 518.423 160.075 470.011 153.714 436.915C147.04 402.187 174.779 370.184 207.11 377.545C212.352 378.739 216.657 380.645 220.191 383.002C243.203 398.346 240.608 434.638 215.906 447.08V447.08C205.308 452.418 185.581 442.76 183.799 431.028C181.933 418.748 191.443 408.732 200.824 411.838" stroke="white" stroke-width="15.4157" stroke-linecap="round"/>
<path d="M275.358 419.391C321.598 518.423 387.809 470.011 394.169 436.915C400.843 402.187 373.104 370.184 340.774 377.545C335.532 378.739 331.227 380.645 327.692 383.002C304.681 398.346 307.276 434.638 331.977 447.08V447.08C342.575 452.418 362.303 442.76 364.085 431.028C365.95 418.748 356.441 408.732 347.059 411.838" stroke="white" stroke-width="15.4157" stroke-linecap="round"/>
<path d="M112.708 247.5C13.6759 293.74 54.5345 359.809 87.6303 366.169C122.358 372.843 154.361 345.104 147 312.774C145.807 307.532 143.9 303.227 141.544 299.692C126.2 276.681 89.9073 279.276 77.4657 303.978V303.978C72.1279 314.575 81.7859 334.303 93.5174 336.085C105.798 337.95 115.813 328.441 112.708 319.059" stroke="white" stroke-width="15.4157" stroke-linecap="round"/>
<path d="M113.155 247.526C14.1227 201.286 62.5346 135.075 95.6303 128.715C130.358 122.041 162.361 149.78 155 182.11C153.807 187.352 151.9 191.657 149.544 195.192C134.2 218.203 97.9073 215.608 85.4657 190.907V190.907C80.1279 180.309 89.786 160.581 101.517 158.799C113.798 156.934 123.813 166.443 120.708 175.825" stroke="white" stroke-width="15.4157" stroke-linecap="round"/>
<path d="M430.391 248.358C529.423 294.598 481.011 360.809 447.916 367.169C413.188 373.843 381.185 346.104 388.546 313.774C389.739 308.532 391.646 304.227 394.002 300.692C409.346 277.681 445.639 280.275 458.08 304.977V304.977C463.418 315.575 453.76 335.303 442.029 337.085C429.748 338.95 419.733 329.441 422.838 320.059" stroke="white" stroke-width="15.4157" stroke-linecap="round"/>
<path d="M430.391 245.525C529.423 199.285 481.011 133.075 447.916 126.714C413.187 120.04 381.185 147.779 388.546 180.11C389.739 185.352 391.645 189.657 394.002 193.191C409.346 216.203 445.639 213.608 458.08 188.906V188.906C463.418 178.308 453.76 158.581 442.029 156.799C429.748 154.933 419.733 164.443 422.838 173.824" stroke="white" stroke-width="15.4157" stroke-linecap="round"/>
<path d="M2.23743 143.306L154.237 346.306C165.237 359.806 160.737 367.806 154.237 373.306L87.7374 421.806C80.2374 434.306 88.7374 439.806 96.7374 437.306L169.737 383.806C174.071 383.449 174.904 384.568 174.237 388.306L108.237 439.806C103.852 444.69 101.737 453.092 106.737 458.806C110.237 462.806 118.237 456.806 118.237 464.306C116.737 470.806 122.532 474.306 123.737 473.306C152.824 449.178 171.737 436.723 190.737 419.306C196.737 413.806 199.111 414.806 205.737 419.306C222.694 430.822 243.483 451.455 260.5 473.306C263.5 477.158 270.917 471.306 268 466.306C261 454.306 243 444.5 245.5 434.5C237.387 434.657 232.237 422.806 226.237 404.306C224.213 398.065 224.504 394.306 232.237 388.306C313.671 325.126 351.05 291.667 403.737 235.306C452.76 170.372 475.873 133.359 509.237 68.3062C511.237 64.8062 509.822 61.9928 506.237 58.8062C504.167 56.9655 503.632 55.5355 506.237 50.3061C514.664 33.3921 519.065 24.3753 526.237 9.30634C529.237 2.80619 517.655 -0.193838 515.737 3.80615C486.737 64.3062 457.237 128.306 418.737 171.806C413.49 169.723 408.987 171.306 403.737 178.306C366.237 228.306 302.15 266.665 201.237 340.306C190.737 347.806 182.237 349.806 174.237 340.306L9.23743 139.806C6.73743 136.806 0.737413 141.306 2.23743 143.306Z" fill="black" stroke="white" stroke-width="4"/>
</svg>
