<svg width="299" height="114" viewBox="0 0 299 114" fill="none" xmlns="http://www.w3.org/2000/svg">
<path d="M125.992 102.843H141.584V88.7397" stroke="#3B6C46" stroke-width="7.88262"/>
<path d="M167.815 103.022H152.223V88.918" stroke="#3B6C46" stroke-width="7.88262"/>
<path d="M0 108.493H299" stroke="#3B6C46" stroke-width="9.85327"/>
<path d="M100.861 103.558H111.793V88.5614H125.771V75.7074H139.749V61.7822" stroke="#3B6C46" stroke-width="7.88262"/>
<path d="M194.78 103.558H183.848V88.5614H169.87V75.7074H155.891V61.7822" stroke="#3B6C46" stroke-width="7.88262"/>
<path d="M50.2319 108.492C24.5511 62.6104 64.7238 43.8652 79.0316 43.8652C81.5996 1.73276 125.074 -5.34454 146.719 18.7567C177.026 -13.7212 219.91 18.7564 214.957 43.865C267.787 43.865 260.998 108.492 241.921 108.492" stroke="#3B6C46" stroke-width="9.85327"/>
<path d="M71.2887 107.835C47.4364 88.7857 59.6086 64.3267 73.7593 61.1965C88.608 57.9119 102.782 69.0791 100.082 82.7241C98.6137 90.1455 93.5397 93.2654 89.2166 94.5676C84.8746 95.8754 80.056 95.2408 76.3174 92.6744C73.5984 90.8078 71.0566 87.8645 71.2763 83.4326C71.4516 79.8954 73.6165 76.5626 76.7851 74.9806C82.2655 72.2441 86.588 76.0917 85.2333 80.5746" stroke="#3B6C46" stroke-width="7.88262" stroke-linecap="round"/>
<path d="M147.329 44.5645C127.418 3.06288 98.908 23.351 96.1693 37.2205C93.2954 51.7742 105.24 65.1856 119.161 62.1009C126.43 60.4901 129.517 55.7801 130.806 51.6467C132.227 47.0912 131.327 41.9576 128.28 38.2763C126.229 35.7984 123.128 33.6318 118.672 34.0802C115.228 34.4268 112.003 36.5171 110.467 39.6168C107.758 45.0812 111.873 49.2057 116.455 47.7298" stroke="#3B6C46" stroke-width="7.88262" stroke-linecap="round"/>
<path d="M148.004 44.5641C161.83 5.69011 194.584 23.3505 197.323 37.2201C200.197 51.7737 188.252 65.1852 174.331 62.1004C167.062 60.4897 163.976 55.7797 162.686 51.6462C161.265 47.0908 162.165 41.9571 165.212 38.2759C167.264 35.7979 170.364 33.6314 174.82 34.0797C178.264 34.4263 181.489 36.5167 183.025 39.6163C185.734 45.0807 181.619 49.2053 177.038 47.7294" stroke="#3B6C46" stroke-width="7.88262" stroke-linecap="round"/>
<path d="M226.064 106.522C249.916 87.4722 237.744 63.0132 223.593 59.883C208.745 56.5984 194.571 67.7657 197.27 81.4106C198.739 88.832 203.813 91.9519 208.136 93.2541C212.478 94.5619 217.296 93.9273 221.035 91.3609C223.754 89.4944 226.296 86.551 226.076 82.1191C225.901 78.5819 223.736 75.2492 220.567 73.6671C215.087 70.9307 210.765 74.7782 212.119 79.2611" stroke="#3B6C46" stroke-width="7.88262" stroke-linecap="round"/>
</svg>
